<svg xmlns="http://www.w3.org/2000/svg" viewBox="0 0 372 355" enable-background="new 0 0 372 355"><path fill-rule="evenodd" clip-rule="evenodd" d="M5.562 117.352c2.685-4.67 26.714-43.592 23.985-46.662-1.306-1.472 5.29-15.985 6.414-18.196 7.176-14.12-.18-15.961 16.873-16.31 3.259-.067 27.116-8.284 27.132-8.206-.857-4.328 3.457-19.093 8.074-21.36 5.447-2.676 9.46 11.605 17.971 8.6 6.449-2.277 7.233-10.911 13.032-14.903 3.205 5.588.751 15.057-4.532 19.098-3.587 2.887-7.748 4.495-12.484 4.826.89 5.884.108 11.5-2.346 16.85-2.318 7.305-13.667 14.59-18.306 22.289 3.992-1.097 21.81-8.217 24.131-5.176-10.57 17.782-9.839 11.675 4.935 25.826 8.623 8.26 25.115 14.597 34.937 16.509 12.626 2.458 22.989-6.332 35.668-.924 11.989 5.109 27.532 7.892 40.291 12.177 30.654 10.284 75.704-4.122 103.525 14.749 11.358 7.707 24.143 25.724 30.782 37.573 6.429 11.469 2.594 13.957 4.838 24.672 1.415 6.763 6.525 10.623 5.904 17.192-2.649.636-3.825-.326-3.528-2.886-2.589 3.656-4.766 3.397-6.53-.775-6.284 17.122-9.252 30.136-8.042 49.109 1.098 17.178 10.312 28.773 9.263 46.272-.87 14.477 9.093 29.925 6.899 43.35-3.406 20.901-24.956 13.625-38.845 5.451 7.867-14.34 26.43-6.605 17.217-32.145-7.54-20.891-14.796-32.555-32.124-45.874v4.686c-4.163-3.843-10.421-16.981-13.003-22.429-8.281-1.113-6.771 7.29-15.495 1.298-6.758-4.642-25.211-2.425-33.775-4.193-8.959-1.85-25.674-3.754-31.585-12.302-.853-1.236-11.051-.943-11.679-.892-7.704.629-4.755 5.924-5.555 12.411-2.384 19.319-11.655 39.339-5.6 59.047 3.565 11.611 6.046 12.446 4.346 24.848-1.038 7.556-39.603-3.521-44.667-4.975 13.302-16.902-2.904-52.905-13.304-67.947l-2.101 2.413c.527-2.109.081-3.299-1.337-3.572-16.153 37.496-7.538 1.134-18.567-7.199-4.497 5.651-2.345 15.97-2.345 22.546-6.029 1.275-10.124-25.795-11.539-28.076.308 5.886.648 12.369.988 18.851l-1.13.241c-1.997-4.781-1.355-10.653-2.858-15.832-6.197 6.806 1.576 13.432-1.859 21.147-1.005-4.548-5.51-11.491-5.531-11.731 3.185-1.344 3.67-4.244 1.456-8.699-2.382 2.775-1.82 5.407-1.385 8.758-6.755-5.753-12.415-14.817-16.523-22.562-.472 2.022-1.578 3.341-3.317 3.957-2.379-1.896-5.289-10.019-4.578-12.751 2.856.812 2.86 3.764 3.304 6.332 2.855-6.888-3.594-5.654-4.159-12.238l-1.721 3.171-1.092-.405c2.089-6.104-1.96-10.314-.743-16.394l-1.892-.353c-1.339 7.988-2.03 14.079-2.42 21.612-3.743.486-1.899-6.756-5.41-7.069-.256 4.186-.343 8.377-.263 12.57-5.233-3.269-6.422-13.297-8.643-18.799l-1.495 3.344c-4.036-6.415 7.613-16.628 3.691-25.503 1.251 2.84-10.965 11.874-13.702 13.442 9.631-18.87-3.005-18.327-8.555-35.503l-2.845 1.268c-1.557-6.606-.346-28.558 3.201-33.481-5.355 7.425-21.447-12.363-21.447-20.163.475-.827 0 .519 0 0zm170.475 140.086c-3.262 8.206-12.195 63.332-.118 65.442 13.431-17.569.278-46.355.118-65.442-.759 1.909.015 1.751 0 0zm-124.949-35.722l.59.098v-8.097l-.59.001v7.998c.197.033 0-2.667 0 0z"/></svg>