<svg xmlns="http://www.w3.org/2000/svg" viewBox="407.8 0 187.4 841.9" enable-background="new 407.8 0 187.4 841.9"><path d="M595.3 0h-38.6c-15.8 50.7-78.8 60.6-22.1 117 10.7 4.8 21.3 9.6 32 14.3h-2.2l-8.8 6.6v49.7c-3.7 2.9-7.4 5.9-11 8.8l-3.3 17.7-13.2 22.1.7 10.3c-4.5 0-8.9-.3-12.7-1.6-4.8-1.6-10.6-2.7-15.2-4.6-4.8-2-8.7 1.3-13.4.3-3.7-.7-9.9-3.1-13.1-6.2-5.6-5.3-5.8-3-1.9-9.7-.9-1.1-7.6 1.5-9.1 1.9 1.7-2.9 6-5.6 6.9-8.4.9-2 1.2-4.1.9-6.3 1.8-.1 3.3-.7 4.7-1.8 2-1.5 2.9-5.1 1.7-7.2-2.2 1.5-2.5 4.7-4.9 5.6-3.2 1.1-4.7-4.2-6.8-3.2-1.7.9-3.4 6.4-3 8 0 0-9 3.1-10.2 3.1-6.4.1-3.6.8-6.3 6.1-.4.8-2.9 6.3-2.4 6.8 1 1.2-8 15.8-9 17.5 0 2.9 6.1 10.4 8.1 7.6-1.3 1.9-1.8 10.1-1.2 12.6.3-.1.8-.3 1.1-.5 2.1 6.5 6.8 6.3 3.2 13.4 1-.6 5.6-4 5.2-5.1 1.5 3.3-2.9 7.2-1.4 9.6.2-.5.4-.9.6-1.3.8 2.1 1.3 5.8 3.3 7.1 0-1.6 0-3.2.1-4.7 1.3.1.6 2.8 2 2.7.1-2.8.4-5.1.9-8.1.3.1.6.1.7.1-.5 2.3 1.1 3.9.3 6.2l.4.2c.2-.3.4-.6.6-1.2.2 2.5 2.6 2 1.6 4.6-.2-1-.2-2.1-1.2-2.4-.3 1 .8 4.1 1.7 4.8.7-.2 1.1-.7 1.2-1.5 1.5 2.9 3.7 6.3 6.2 8.5 0 .1 1.7 2.7 2.1 4.4 1.3-2.9-1.6-5.4.7-8 .6 1.9.3 4.2 1.1 6l.4-.1c-.1-2.4-.3-4.9-.4-7.1.5.9 2.1 11 4.3 10.6 0-2.5-.8-6.4.9-8.5 4.1 3.1.9 16.8 7 2.7.5.1.7.6.5 1.3.3-.4.5-.6.8-.9 3.3 4.8 8.1 15.1 6.6 22.1l-1.6 1.4c-13.5 21.2-2.8 40.8 3.3 58.5l3.3 22.1c5.1 8.6 15.5 10.3 19.9 22.1 3.4 9.4.6 26.8 3.3 35.3l27.6 2.2v32c3.7 9.6 7.4 19.1 11 28.7-2.4 20.9-19.2 31.8-21 53 8.2 8.4 21.6 11.4 27.6 22.1 4.1 7.2 8.1 21.2 11.3 37.8l-.8 2c-.2 0-.4-.1-.5-.1l.6-3.8c-1.9-1.1-1.7-3.2-2.3-4.9-.5-1.4-.9-2.9-1.7-4.2l3.1 12.5c-.1 0-.3.1-.5.1-2-5.2-4.1-10.4-5.9-15.7-.2.1-.5.3-.8.4-1.5 3.8-2.5 8.1-3.5 12.6.1.8 0 1.7-.6 2.9l.6-2.9c-.5-3.4-6.1-4.3-3.6-9.2-2.2 0-2.8.8-2.8 2v.5c.2 1.7 1.1 3.9.4 5.6.2 2.5.3 5 .5 7.7l-3.1-2.2c.2 1.7.5 2.9.5 4.2 0 1.5.1 3.2-.4 4.6-1.1 3.3-2.4 6.4-3.7 9.9-.7-.5-1.3-1-1.9-1.4 2 2.3 1.1 4.5-.1 6.7-1.8-1-1.8-1-1.5-2.9.2-1.1.4-2.3.7-3.4.1-.2.6-.3.9-.4-.1-.8-.5-1.7-.4-2.5 1.3-7.4 2.6-14.8 4-22.3l.3-.4c.4.6.9 1.2 1.7 2.4.1-.3.2-.6.3-.8-1.3-1.7-2.2-3.6-2.8-5.6-.1 3.9-1.3 7.7-2.2 11.5-1.5 6.1-3 12.3-4.5 18.5h-.1l5.3-42.4v-4.1c0-.9 0-1.6-.1-2h-.1c.1 1.5.1 3.1-.1 4.6-1.7 9.1-3.7 18.2-5.5 27.3-1.1 5.6-2.1 11.2-3.1 16.9.2-4.3.8-8.5 1.3-12.7.5-4.2.9-8.4 1.3-12.6.4-4.3.8-8.5.9-12.8.2-4.2 0-8.4 0-12.6-.1 0-.3 0-.4-.1-2.3 19.1-4.5 38.1-6.7 56.8-.6-2.9-3.2-6.1-.9-10 .5-.8.5-1.8.6-2.7 1.6-12.6 3.3-25.2 4.7-37.8.6-4.9.5-9.8.7-14.7-.2 0-.5 0-.7-.1-3.2 18-6.5 36.1-8.3 54.4-.5-1.8-.6-3.5-.5-5.3 0-1.1.5-2.3.6-3.4 1.3-14.3 2.6-28.6 3.8-42.9.2-2.5 0-5.1 0-7.7-.2 0-.5 0-.7-.1l-5.6 52.6c-1.3-2.9-2-5.6-1.7-9.1 1.2-12.3 1.6-24.6 2.2-36.9.2-3.1 0-6.2 0-9.2h-.9c-1.7 15.1-3.6 30.2-3.8 45.6-1.1-2.1-2.5-4.4-2.5-6.6 0-11.8.5-23.6.7-35.4 0-.9-.2-1.8-.3-2.7h-.6c-.7 11.7-1.4 23.4-2.1 35.7-.4-1.3-1-2.2-1-3.2-.2-6.7-.2-13.5-.3-20.2-.1-4-.5-8-.8-12h-.5v29.9c-1-1-1.9-2.1-2.1-3.4-.5-3.7-.5-7.4-.9-11.1-.6-5.5-1.4-11-2.2-16.5h-.2v15c-.9-5.5-1.9-10.9-2.8-16.2-.1 0-.3 0-.4.1l.6 13h-.2c-.6-3.7-1.3-7.4-1.9-11.2-.2 0-.4 0-.6.1l1.6 19.6c-1.5-7-2.9-14-6-20.5-.2.1-.4.1-.5.2 1.5 6.2 3.1 12.5 4.5 18.1-8.7-3-17.7-6.2-26.7-9.3 1.3 1.4 2.5 2.6 4 3.4 1.6 1 3.3 1.6 5 2.4l-.1.3c-1-.1-2.1-.3-3-.4l3.7 2.7c-.1.1-.1.2-.2.2l-10.3-3.9-.2.5c5 2.7 10 5.4 15 8l-.2.4-12-5.8-.2.4c6.7 4 13.5 8 20.2 11.9-.1.1-.1.2-.2.4-6.7-3.4-13.5-6.8-20.2-10.1l-.2.4c1.9 1.2 3.8 2.5 5.8 3.7l-.2.4-4.1-2.3c1.5 1.6 3.2 2.9 4.9 4.1 9.2 6.7 18.3 13.6 27.6 20.1 3.5 2.4 7.4 4.1 11.2 6.1.3.2.6.4.7.7l2.2 5.5c-12.6-9.1-25.5-18.3-38.4-27.6-.2.2-.4.5-.5.7l2.3 2.1c5.7 4.6 11.4 9.2 17.2 13.7 6.1 4.6 12.3 9 18.5 13.4 2.2 1.5 2.9 2.2 3.1 5.1-14.2-11.9-34.4-26.8-37.3-27.5 8.3 7 16.3 13.7 24.4 20.3 4 3.2 8.2 6.3 12.4 9.2 1.5 1 2.5 1.9 2.5 3.1-14.5-9.3-29.3-18.7-44.1-28.2l-.5.7c10 7.1 19.9 14.3 30 21.3 4.3 3 8.9 5.8 13.5 8.3 1.7.9 2.7 1.9 2.8 3.2-11.4-6.9-23-14-34.6-21.1-.1.2-.2.4-.4.6.1.2.2.4.4.5 10.7 7 21.3 14 32 21.1l3.8 2.6-.4.6c-3.5-2.1-7-4.4-10.6-6.4-1.1-.6-2.4-.9-3.7-1.3-1.6-.5-3.3-.9-5-1.5l-10.7-4.3c-1.6-.6-3.3-1.1-3.5-3.3l-.2 1.6c-2.1-.2-3.2-1.2-3.5-3.2-.2-1.4-.6-2.8-1-4.2l-.4.1.5 5.7c-2.3-.3-3.3-1.2-3.7-3.3-.5-2.7-1.4-5.3-2.1-7.9-.3 3.2 1.2 6.4.9 9.4 1.7 6.5 2.5 13.2 3.9 19.7l-.6.2-10.1-31.4c-.2.1-.4.1-.7.2l9.1 36.3-.8.3c-2.9-14.5-8.9-27.9-14.2-41.5-.2.1-.4.1-.7.2l9.1 32.2c-3.6-11.8-8.8-22.9-13.7-34.1l-.5.2c3.1 9.3 6.2 18.6 9.4 27.9l-.2.1c-4.3-9.5-8.6-19-12.9-28.4l-.7.3c3 7.5 6.1 15 9.1 22.4l-.3.2-10.8-21.8-.6.3c2.6 5.7 5.3 11.5 7.8 17.1-4.9-5.8-9.9-11.6-14.8-17.5-.2.2-.4.3-.7.5 2 2.8 4.1 5.6 6.3 8.7-3.7-2.7-7-5.1-10.3-7.5-.1.1-.2.3-.4.4 15.1 10.9 27.4 24.4 38 40-1-.1-1.6-.1-2.8-.2 3.7 1.4 3.8 1.4 5.3 4l7.7 13.6c1.6 2.9 3.3 5.7 5.2 8.9-1.3-.2-2-.3-2.8-.5 2.1.9 4.1 1.9 4.3 4.8-3.5.3-7.1.6-11.3.9 1.7 1.4 2.7 2.6 4.1 3.4 3.6 2.1 7.3 4.1 11 6.1.6.3 1.4.7 1.6 1.3 1.8 4.3 3.5 8.7 5.4 13.7-1.2-.3-1.9-.5-2-.5-2.4 1.4-4.8 1.5-7.4 2v-11.9h-.6c-.4 2.6-1 5.2-1.3 7.9-.2 2.6-.8 4.8-4 4.9-.2 0-.5.3-.9.5.6.4.9.8 1.4.9 2.3.6 2.4 2.1 2.2 4.1-.5 4.5-.8 9.1-1.1 13.7-.1 1.7 0 3.5 0 5.3h-.4l-10.7-46.6-.7.2c1.9 15.1 3.1 30.3 6.5 45.2-4.8-17-11.4-33.3-17.6-49.7l-.6.2c4.4 14.3 8.7 28.6 13.2 43.5-.8-1.4-1.5-2.3-1.9-3.3-.7-2.1-.9-4.4-1.8-6.5-4-9.4-8-18.8-12.2-28.1-2.1-4.7-4.4-9.2-6.6-13.8l-.4.2 8.1 22.5c-.1 0-.1 0-.2.1l-14-28.1-.4.2 9.8 25.9c-.1 0-.1 0-.2.1-5.3-9.9-10.6-19.8-15.8-29.8-.2.1-.3.2-.5.2 4.5 10.2 9 20.4 13.5 30.7l-.2.1c-6.3-10.4-12.6-20.7-19-31.1-.2.1-.4.2-.6.4l17.7 33.4-.5.3c-2.4-4.3-4.7-8.6-7.3-12.7-2.6-4.2-5.5-8.4-8.3-12.5l-8.5-12c.6 2.1 1.5 4 2.5 5.8l9.4 17.1c1.3 2 2.6 3.9 3.9 5.8-2.4-1.2-2.8-3.8-4.1-5.7l-5.8-8.1-10.8-14.6-.6.4 15.1 23.7-.2.2-19.4-24.7-.6.5 14.6 20.1c-.1.1-.2.2-.3.2-5.1-6.1-10.3-12.2-15.4-18.4l-.6.5 11.4 14.3-.4.5c-5.5-5.6-11.8-10-18.8-13.5 2.5 2.1 5 4.2 7.5 6.4-2.2-.6-4.2-1.5-6.3-2.3-2-.8-4-1.5-6.1-2.2 32.2 13.2 56.1 36.2 77.1 63.4l-6.5.8c-.5.3-1.5 1.1-2.5 1.6l-5.9 2.8c-1.7.8-3.4 1.8-5.6 2.9h4.7c-1.8 1-3.2 1.7-4.5 2.6-2.2 1.5-4.7 2.6-6.7 4.6-.4.4-1.1.3-1.8.5l-4.6 5.9c-.4-2.4-.7-4.6-1-6.8 0-.3.2-.7.3-1 .4-1.4 1.1-2.8 1.3-4.3.8-4.4 1.3-8.9 2.2-13.3 1.7-8.2.4-15.9-3.4-23.9-2.4 4.9-4.7 9.3-6.8 13.8-1.6 3.4-3 6.8-.3 10.4 0 0-.1.1-.1.2-.9-.7-1.7-1.3-3-2.3-2.3 6.7-4.4 13-6.6 19.3-5.4-5-12-8.7-16-15.3l-.8.4c1.3 6.1 2.7 12.1 4 18.1-3.7-7-9.4-12.1-16.7-15.3-.2 1.4-.4 2.5-.5 3.6l-.8.4c-1-7.6-6.7-9.1-12.8-11 .5 1.2.8 1.9 1 2.5 1.6 4.8 3.1 9.6 4.8 14.4 1.1 3.1 2.3 6.2 3.6 9.2.7 1.7 1.8 3.2 3.1 5.2-2-.5-3.4-.8-4.7-1.2-1.4-.4-1.2-1.2-2.2.8v57.5h181.3v-842.9zm-143.2 286.3h-.2v-3h.2v3zm16 13.1c-.2-1.2-.4-2.2.5-3.3.9 1.7.7 2.8-.5 3.3zm28.5 18.8c-.2-6.4 1.4-15.8 2.2-18.3-.1.4.1.3.1-.2 0 4.2 1.7 9.7 2.1 14.8-1.4 1.2-2.9 2.4-4.4 3.7zm8.4-7.1c.3-5.2 2.2-10.4 2.8-15.4.3-2.4-.8-4.4 2.1-4.7.2 0 4.1-.1 4.4.3 1.7 2.5 5.9 3.5 9.3 4.1-6.2 5.3-12.4 10.5-18.6 15.7zm18.3 317.9c.7.3 1.1 1.5 1.6 2.3l-.4.4-8.4-5c2.6.7 5 1.3 7.2 2.3zm-9.7-14.6l-6.4-2.2c2.2.6 4.8-.1 6.4 2.2zm-9.8-1.7c1.6.5 3.2 1.1 4.9 1.6 1 .3 2 .8 2.9.7 3.6-.1 5.1 2.3 6.6 5.1-4.9-2.4-9.7-4.8-14.4-7.2-.1-.1 0-.1 0-.2zm.2 4.2c0-.1.1-.2.1-.2 2.3 1.1 4.6 2.3 7 3.3l8.5 3.2c.8.3 1.4 1.3 2 2.1.6.7.9 1.6 1.4 2.4-6.4-3.7-12.7-7.3-19-10.8zm8.2 11.2l.1-.3c.8.5 1.7 1 2.6 1.4 3.7 1.8 7.5 3.5 11.1 5.4.7.3 1.1 1.2 1.5 1.9.6 1.2 1.1 2.4 1.7 3.7-5.8-4-11.4-8.1-17-12.1zm-20.4 111.4c.8 1.9 1.6 3.7 2.4 5.4-1.6-1.4-3.5-2.7-2.4-5.4zm-48.9 47.6c-.4-1.9-.7-3.5-1-5.1.4 1.6 3.5 2.7 1 5.1zm-.5 7.3c1.1-1.7 2.1-3.3 3.2-5.1 1.5 1.8 1.5 1.9-2.5 5.4-.2 0-.4-.2-.7-.3zm2.1 5.5c-.4-.2-.6-1.6-.3-1.8 1-1 2.2-1.7 3.8-2.8.4 2.7.7 4.7 1 6.9-1.7-.8-3.2-1.4-4.5-2.3zm18.4-6.7l-.6-.3 4.1-7.9c.2.1.3.2.4.2-1.3 2.6-2.6 5.3-3.9 8zm116.2-128.9l1.7-1.6c.1.7.2 1.4.2 2-.6.4-1.2.8-2.1 1.2 0-.5-.1-1.3.2-1.6zm-.1 31.4c.9.2 1.7 1.2 2.5 1.9-.1.2-.2.3-.4.5l-4.2-.5c-.1-.2-.2-.4-.3-.7.8-.4 1.7-1.4 2.4-1.2zm-35.9 60.6c-1.9 3.8-3.3 4.8-5.6 4 1.9-1.1 3.1-3 5.6-4zm-5.7-22.4c-.2-.2-.4-.4-.6-.5 1-1.8 2.1-3.7 3.2-5.7.8.3 1.4.5 2.3.8-1.8 1.8-2.8 4.2-4.9 5.4zm5.2 1.3c1-1.5 1.9-3.2 3.1-4.5.5-.5 1.9-.3 3 0-2.1 1.6-2.9 4.5-6.1 4.5zm.9-22.5c-1.8-.6-3.6-1.1-5.5-1.7.1-.6.1-1.1.3-1.6.3-1 .7-2 1.2-3.5 1.6 2.4 3 4.3 4.4 6.3-.2.2-.3.3-.4.5zm-4.8-15.8c-1.2-.5-2.5-.7-4-1.1l.5-2 6.6 1.2c-.3 2-1.2 2.7-3.1 1.9zm-1.8 5.8l-.2.4c-1.1-.3-2.3-.7-3.6-1.1.2-.9.4-1.6.6-2.7 1.3 1.4 2.2 2.4 3.2 3.4zm-1.6-15.2c-1.6 3.6-.7 3.2-4.6 2.4-2-.4-4.1-.9-6.3-1.4v-3.9l11.1 2.1-.2.8zm-10.8 3.6l8.3 2.1c-.2.7-.4 1.3-.7 2-2.7-.6-5.1-1.1-7.6-1.7v-2.4zm8.2 13l4.2 1.4c-.7 1.6-1.4 3-2.1 4.5-1.2-.3-2.2-.6-3.4-1 .4-1.8.8-3.3 1.3-4.9zm1.1 53.7c-1-2.7-.8-3.1 2.6-4.8-.8 1.4-1.6 2.9-2.6 4.8zm.5 27.8c-.3.6-.6 1.2-1 1.9-.7-.4-1.4-.7-2.1-1 .6-2.2 1.8-1.3 3.1-.9zm-1-60.3c.7.2 1.3.4 2.2.7-1.4 2.3-2.2 4.8-4 6.7l-.8-.4c.9-2.3 1.7-4.6 2.6-7zm-1.1 33.4c-1.1-.2-1.9-.4-2.8-.6.4-1.4.7-2.7 1.2-4.6.6 2 1 3.4 1.6 5.2zm37.6-81l.7.1c-.1.7-.2 1.4-.3 2 0 .2-.3.5-.2.7.8 1.5-.1 2-1.7 2.7.6-2.1 1-3.8 1.5-5.5zm-1.3-33.9l.6-.1c.5 1.5 1.7 2.8 1.1 4.5l-.7.2c-.4-1.6-.7-3.1-1-4.6zm2.3 4.5c.8 2.2 1.5 4.1 2.3 6.2-2.2-1.7-3-4-2.3-6.2zm11 54.4c.5-.1.8-.3 1.1-.3v2.3c-.3-.4-.7-1.1-1.1-2zm-10.7-8c-.3-1.3-.5-2.1-.7-2.8h7.3c-1.7 3-4.6 1.2-6.6 2.8zm4.7-42.3c1.1-1.1 2.1-2.3 3.1-3.5l.3 1.8c-1.6 2-3.1 4-4.6 6.1-.4-2.7-.3-2.8 1.2-4.4zm1.3-12.9c0-.1.1-.2.1-.2.2 1 .4 1.9.5 2.9l-1.7 4.3-.7-.3c.2-2.4.6-4.4 1.8-6.7zm-.9 7.5c.7-1 1.3-1.9 1.9-2.9l.4 2.5c-1.1 1.8-2.2 3.5-3.4 5.3l-.6-.2c.6-1.6.8-3.4 1.7-4.7zm-7.4-22.6c1.9 5.8 3.9 11.2 5.6 16.8.5 1.6.1 3.5-.2 5.4-1.7-7.4-6.8-13.8-5.4-22.2zm.2 11.6l4.7 14.6c-.1 0-.2.1-.4.1-1.7-4.8-3.4-9.6-5.1-14.5.3 0 .6-.1.8-.2zm-3.7 44c2.8 2 .7 3.6.7 5.1h-.7v-5.1zm-5.3-12.1l-.6-.1c.2-1.2.5-2.4.7-3.9 1.5 1.6 1.5 1.6-.1 4zm-1.4-16c.4 2.5 2.9 4.4.9 7.1-2.6-2.1-2.6-4.3-.9-7.1zm-2.1 5.3c2.6 2.1 2.7 2.9.6 7-3.5-2.2-.5-4.6-.6-7zm-2 7c2 1.7 2.1 2 .5 4.3-2.4-1.2-.8-2.8-.5-4.3zm-1.8 5.4h.9v3.9c-2.6-1.4-1.1-2.7-.9-3.9zm-4.4-5.2c2.6 1.7.5 3.2.2 5.1-1.8-1.9-.3-3.4-.2-5.1zm-2.2 30.8c.3 1.5.7 3 1.1 4.8-1.9-.8-3.6-1.5-5.4-2.3.6-2.9-.3-2.8 4.3-2.5zm-.6-1.5c-3.2-.9-6.3-1.8-9.7-2.8.3-1.4.6-2.7.8-3.9 3.5.1 8.3 3.7 8.9 6.7zm-21.1-16.9c5.2-.3 8.6 3 12.2 6.5-4.3-.8-8.2-1.5-12.2-2.3v-4.2zm.1 19.7l6.3 2.1c-.3.9-.6 1.6-.9 2.4-6.8-1.7-5.7-1.1-5.4-4.5zm-21.1-24.2c-1.3-5.1-2.5-10.2-3.8-15.4 2.1.4 2.8 1.6 3 3.5.4 3.9.9 7.8 1.4 11.8-.3 0-.5.1-.6.1zm3.7.3c-1-4.3-2-8.6-3-13 2.1.4 2.7 1.5 2.7 3.4.1 2.4.5 4.8.8 7.2l.2 2.3c-.2 0-.4 0-.7.1zm2.6-2.5c-.4-1.8-.7-3.7-1.2-5.8 6.3 2.6 5.2 1.1 5.2 8.3-3.2.7-3.3.6-4-2.5zm1 4.1c3.6-.1 3.9.4 3.3 5.1-2.5.3-2.6.8-3.3-5.1zm1.6 7.9c2.2.1 2.2.1 2 4.1-1.8-.1-2.2-.8-2-4.1zm2.1 9.4l-.6.1c-.3-1.2-.5-2.5-.8-3.9 1.9.8 2 1.2 1.4 3.8zm0-24c2.7.5 8.6 4.6 9 6.5-1.4-.2-2.7-.3-4.1-.4-1.4-.1-2.7-.3-4.2-.4-.2-2-.4-3.9-.7-5.7zm.9 7.3c2.5.5 4.6.8 6.7 1.3.4.1.9.8.9 1.3 0 1.1-.2 2.1-.4 3.4-2.2-.3-4.3-.6-6.6-.9-.1-1.6-.3-3.1-.6-5.1zm4.5 31c-1.4-.5-1.8-2.1-1.5-6.3 2.4.5 2.7 1.8 1.5 6.3zm.7-7.5c-2.8-.5-2.8-.5-2.7-3.8 3.3.4 3.3.5 2.7 3.8zm.7-5.7c-3.9.1-4.1-.1-4-3.7l4.1 1.2c0 1 0 1.7-.1 2.5zm-4.7-9.8c1.9.4 3.6.8 5.6 1.2-.1 1.3-.3 2.4-.4 3.6-5.7-.4-5.2-.3-5.2-4.8zm6.6 42.5l-.4.1c-.3-.8-.8-1.7-1-2.5-.1-.4.4-1 .8-1.3.2-.2.8-.2.9-.1.1.4.2.8.1 1.2-.1.8-.2 1.7-.4 2.6zm1.4-23.9c1.5.5 3 1 4.7 1.5-.6 1.7-1.1 3.2-1.6 4.7-4-.1-3.6 0-3.1-6.2zm4.3 22.9c-.8 2.9-1.7 5.8-2.7 8.9-1.2-1.6-1.8-2.8-.8-4.6.9-1.7 1.5-3.6 2.4-5.8.5.6 1.2 1.1 1.1 1.5zm-6.9 20c2.2 2 4 3.7 6.1 5.6-.7 1-1.5 2.1-2.1 3.3-.4.9-2.1 1.7-.7 3.2.2.2-1 1.8-1.7 2.5-.5.5-1.5.4-2.5.6.3-5 .6-9.8.9-15.2zm-7-4.3c1.5.9 2.7 1.4 3.7 2.2.4.3.7 1.2.6 1.7l-2.6 15.4c-.2 1.2-.5 1.9-1.7 1.4v-20.7zm-18.2 36c.6-2.9 1.3-5.8 2-8.9 4.4 1 9.2.7 13.3 3.2l-.1.8c-1.2.4-2.5.6-3.6 1.1-2 .8-2.1 1.5-1 3.2 2 3 5.1 4.2 8.2 5.4 1.3.5 2.5.9 4.3 1.5-2.2.5-3.9.9-5.7 1.4-.8-2.1-3.1-2.1-5.2-1.9-2.9.3-5.9.8-8.9 1.2-1-1.9-2.1-4-3.1-6-.3-.3-.3-.7-.2-1zm84.7-107.2l-.2.1.2-.1zm-1-8.6c-.9.8-1.9 1.6-2.8 2.5-.2 0-.3 0-.5-.1.1-.6 0-1.4.3-1.8l2.7-3 .3 2.4zm-55.2-374c.1 0 0-1 0 0z"/></svg>