<svg xmlns="http://www.w3.org/2000/svg" viewBox="0 0 63.474 480" enable-background="new 0 0 63.474 480"><path fill-rule="evenodd" clip-rule="evenodd" d="M0 0h22.012c9.032 28.907 44.94 34.538 12.582 66.684l-18.244 8.178h1.258l5.033 3.775v28.309l6.291 5.033 1.887 10.066 7.549 12.582-.629 9.436c1.339 4.291 7.138 6.904 7.549 12.582-1.677 3.774-3.355 7.55-5.033 11.324 6.5 5.452 13.002 10.905 19.502 16.356 7.7 12.1 1.593 23.24-1.887 33.342l-1.887 12.582c-2.922 4.88-8.862 5.864-11.324 12.582-1.964 5.358-.368 15.274-1.887 20.131l-15.727 1.258v18.244l-6.291 16.356c1.351 11.896 10.972 18.104 11.953 30.197-4.7 4.769-12.302 6.525-15.727 12.582-7.164 12.669-14.148 61.407-6.92 79.266 2.737 6.762 9.593 8.032 12.582 13.211v4.404c2.187 2.503 7.337 1.487 9.436 4.404 1.677 3.565 3.355 7.13 5.033 10.695l20.76 23.906v2.516c-49.623-.001-53.188-.001-57.871-.001v-480z"/></svg>