<svg xmlns="http://www.w3.org/2000/svg" viewBox="0 0 120 96" enable-background="new 0 0 120 96"><path d="M60.3 74.9h-.3c.1.1.2.1.3 0zm-.6 0c.1.1.2.1.3 0h-.3zm-5.4 3.2c.3-.5 1-1 1.9-.6l-3.1-2.5c-.2.9.9 3.6 1.2 3.1zm26.6 3.7c1.7.9.2 2.2-.6 3.1-.4-1.7-2.6 3.2-3.4 2.5s-4 3.5-4.5 3.9-2.6-.3-2.7-1c-.1-.7-1.5-1.3-1.9-1.9 1.2-1 3.8-1.7 3.6-3.9-1.2-8.3-.5-6.9-.1-8.9.5-4.2-2.7-6.6-3.6-6.4 3.4 5.2 2 6.6 1.5 7.3-1.7 1.8 1 6.2.5 7.5-.5 1.3-1 1.3-2.2 1.8.8-3.1-2-3.9-3.4-5.1 1.2-1.8-.4-3.4-1.2-4-.7-.5-1.3-1.4-2.6-1.7h-.6c-1.4.3-1.9 1.2-2.6 1.7-.8.6-2.4 2.2-1.2 4-1.4 1.2-4.2 2-3.4 5.1-1.2-.5-1.7-.5-2.2-1.8-.5-1.3 2.2-5.7.5-7.5-.5-.7-1.9-2.1 1.5-7.3-.9-.2-4.1 2.2-3.6 6.4.4 2 1.2.6-.1 8.9-.2 2.2 2.4 2.9 3.6 3.9-.4.6-1.8 1.2-1.9 1.9-.1.7-2.2 1.4-2.7 1s-3.7-4.6-4.5-3.9c-.8.7-3-4.2-3.4-2.5-.8-.9-2.3-2.2-.6-3.1-.9-.7-6.2 2.3 2.5 6.6.4.8-.4 1.1 5.5 4.5 2.7.2 3.1 0 3.1 0l-.2 3.1h20l-.2-3.1s.4.2 3.1 0c5.9-3.4 5.1-3.7 5.5-4.5 8.7-4.3 3.4-7.3 2.5-6.6zm-15.2-3.7c.3.5 1.4-2.2 1.2-3.1l-3.1 2.5c.9-.4 1.6.1 1.9.6zm-44.8-44.3c1.7.9.2 2.2-.6 3.1-.4-1.7-2.6 3.2-3.4 2.5-.8-.7-4 3.5-4.5 3.9s-2.6-.3-2.7-1-1.5-1.3-1.9-1.9c1.2-1 3.8-1.7 3.6-3.9-1.2-8.3-.5-6.9-.1-8.9.5-4.2-2.7-6.6-3.6-6.4 3.4 5.2 2 6.6 1.5 7.3-1.7 1.8 1 6.2.5 7.5s-1 1.3-2.2 1.8c.8-3.1-2-3.9-3.4-5.1 1.2-1.8-.4-3.4-1.2-4-.7-.5-1.3-1.4-2.6-1.7v-.1h-.3v43.2c1.3.1 3.4-.8 3.9-2 5-1.4 6.5-11.6 6.5-11.6l.4.3c.4.3.4 8.9.7 11.4 6.9 4.1 4.8 5.7 4.6 6.6 4.6-1.9-1.9-6.3-2.8-7.3-.1-1.1-.9-7.8-.7-10.6.2-2.8-2.4-4.1-2.4-4.1l-.4-7.9s.4.2 3.1 0c5.9-3.4 5.1-3.7 5.5-4.5 8.7-4.3 3.4-7.3 2.5-6.6zm-15.2-3.7c.3.5 1.4-2.2 1.2-3.1l-3.1 2.5c.9-.4 1.6.1 1.9.6zm93.4 3.7c-1.7.9-.2 2.2.6 3.1.4-1.7 2.6 3.2 3.4 2.5.8-.7 4 3.5 4.5 3.9s2.6-.3 2.7-1 1.5-1.3 1.9-1.9c-1.2-1-3.8-1.7-3.6-3.9 1.2-8.3.5-6.9.1-8.9-.5-4.2 2.7-6.6 3.6-6.4-3.4 5.2-2 6.6-1.5 7.3 1.7 1.8-1 6.2-.5 7.5s1 1.3 2.2 1.8c-.8-3.1 2-3.9 3.4-5.1-1.2-1.8.4-3.4 1.2-4 .7-.5 1.3-1.4 2.6-1.7v-.1h.3v43.2c-1.3.1-3.4-.8-3.9-2-5-1.4-6.5-11.6-6.5-11.6l-.4.3s-.4 8.9-.7 11.4c-6.9 4.1-4.8 5.7-4.6 6.6-4.6-1.9 1.9-6.3 2.8-7.3.1-1.1.9-7.8.7-10.6-.2-2.8 2.4-4.1 2.4-4.1l.4-7.9s-.4.2-3.1 0c-5.9-3.4-5.1-3.7-5.5-4.5-8.7-4.3-3.4-7.3-2.5-6.6zm15.2-3.7c-.3.5-1.4-2.2-1.2-3.1l3.1 2.5c-.9-.4-1.6.1-1.9.6zm-41.3-10.6c-.1-1.1-.9-7.8-.7-10.6.2-2.8-2.4-4.1-2.4-4.1l-.2-4.8h-20l-.2 4.8s-2.6 1.3-2.4 4.1-.6 9.5-.7 10.6c-.9 1-7.4 5.4-2.8 7.3-.2-.9-2.3-2.5 4.6-6.6.3-2.5.3-11.1.7-11.4l.4-.3s1.5 10.2 6.5 11.6c.6 1.2 2.6 2.1 3.9 2 1.3.1 3.4-.8 3.9-2 5-1.4 6.5-11.6 6.5-11.6l.4.3c.4.3.4 8.9.7 11.4 6.9 4.1 4.8 5.7 4.6 6.6 4.6-1.9-1.9-6.3-2.8-7.3z" fill="#1E1E1E"/></svg>