<svg xmlns="http://www.w3.org/2000/svg" viewBox="0 0 524 360" enable-background="new 0 0 524 360"><path fill="#1D1D1B" d="M136.2 72.9c-10.6 2.5-20.5 4.9-29.8 7.4s-18.1 5.1-26.7 7.9c-1 3.9-1.9 8.3-2.8 13.2-.9 4.9-1.7 10.5-2.5 16.7 8.4-2.8 16.7-5.3 24.9-7.6s16.5-4.3 24.9-6.2l-7.2 37.9-5.4 1.1c-7.1 1.4-14.3 3.1-21.6 5.2-7.3 2.1-14.8 4.6-22.6 7.4-2.9 11.6-5.4 22.9-7.5 34-2 11.1-3.8 22.4-5.3 33.8l-37.8 10.6c3.3-23 7-45.9 11.3-68.5 4.2-22.6 9-45.2 14.3-67.6l-13.9 2.3 6.9-36c21.4-5.1 41.2-10.1 59.3-15 18.1-4.9 34.8-9.7 50.1-14.5l-8.6 37.9zm65.3-10.7c.6 4.4-.1 9.4-2.1 15.1-5.7 16.7-15.6 29.9-30 39.9 9.6 5.3 15.5 14.3 17.7 26.9.1.5.2 1 .3 1.6.1.4.1.7.2 1v.7c-7.1 2.4-14.3 4.8-21.4 7.3-1.2-6.5-2.9-11.4-5.2-14.5-2.3-3.2-6.2-6.2-11.6-8.7-1.2 5.8-2.2 10.9-3 15.2-.8 4.4-1.5 8.2-2.1 11.5-6.6 1.8-13.2 3.7-19.8 5.6 3-16.8 6.2-32.5 9.5-47 3.2-14.5 6.5-28.2 9.8-41.2-2.6.7-5.2 1.6-7.7 2.7l1.5-21.9c8.1-3.3 18.3-5.8 30.5-7.3 20.8-2.8 31.9 1.7 33.4 13.1zm-22.2 14.2c-.6-4.6-4.6-6.4-12-5.4-.7.1-1.5.2-2.5.4-.9.2-1.9.4-3.1.6-2.8.6-4.7 1-5.6 1.1l5.3 3.3c-2.3 9.4-4.5 18.9-6.7 28.4 5.4-1.7 10.4-4.6 15-8.8 5.5-4.8 8.7-9.9 9.5-15.6.2-1.4.3-2.7.1-4zm143.3 97.2c1.7 2.4 2.9 4.8 3.6 7.4 1 3.7.9 8.6-.2 14.7-2 11-7.1 22-15.2 33.3-8.9 12.2-18.8 20.7-30 24.9-6.8 2.6-12.5 2.8-17.1.4-4.4-2.3-7.7-6.7-9.6-13-2-6.4-2.5-13.9-1.4-22.2 1.8-13.4 7-26.2 15.7-38 9.6-13.3 21-21.2 33.6-24.2 13.7-3.2 22.6.6 27 10.7l-6.4 6zm-13.4 8.8c-2.2-4-6.5-5.2-12.9-3.5-.5.1-.9.2-1.4.4-7.7 2.6-14 9.4-18.5 20.7-4.3 10.5-5.2 19.6-3 27.1 1.7 5.7 5.2 7.6 10.5 5.8 6.5-2.2 12-7.9 16.8-16.8 4.7-8.6 6.3-15.7 4.7-21.7-.5-1.9-1.4-3.7-2.8-5.2 2.2-2.4 4.4-4.6 6.6-6.8zm-39.7-120.6c1.9 2.8 3.2 5.6 3.9 8.6 1.1 4.3 1 9.9-.1 16.8-2 12.6-7.3 25-16 37.6-9.4 13.7-20 22.9-32 27.3-7.3 2.6-13.4 2.6-18.4-.2-4.8-2.8-8.3-7.9-10.5-15.2-2.2-7.4-2.8-15.9-1.7-25.3 1.8-15.2 7.4-29.6 16.6-42.8 10.3-14.9 22.4-23.6 35.9-26.6 14.7-3.2 24.3 1.4 29.1 13.1-2.2 2.2-4.5 4.4-6.8 6.7zm-14.3 9.6c-2.4-4.6-7-6.2-13.9-4.4l-1.5.4c-8.2 2.7-15 10.3-19.7 23-4.5 11.8-5.4 22.2-3 30.8 1.9 6.6 5.7 8.9 11.4 7 7-2.3 12.9-8.6 17.8-18.6 4.9-9.6 6.6-17.8 4.8-24.7-.6-2.2-1.6-4.2-3-6 2.4-2.6 4.7-5 7.1-7.5zm125.5-23.7c-4.3 4.3-7.2 7.9-8.9 10.7-.3.5-.8 1.3-1.4 2.5-.6 1.2-1.3 2.7-2.1 4.6-8.8 19.2-17.2 38.7-25.1 58.5l-22.4 3.1c1.4-3.9 3.1-8.5 5.2-13.9s4.8-11.5 8.1-18.4c-10.1 10.3-20.2 20.8-30.1 31.5-3.4-9.6-6.7-19.2-10-28.9-2.7 6.3-5.1 12.5-7.3 18.4-2.2 5.9-4 11.7-5.7 17.3l-22.3 3.3c3.9-12.3 8-24.3 12.5-35.9 4.4-11.7 9.1-23.1 14.2-34.4l-2.3-6.3c8.2-4.2 16.4-8.4 24.7-12.4 2.8 13.9 5.8 27.7 9 41.4 14.1-15.7 28.4-30.9 43-45.7 6.9 1.6 13.9 3.1 20.9 4.6zm28.2 42.3l-10.8 1.9 2.8.9c-1.5 5.3-2.8 10.3-4 15.1-1.1 4.8-2.1 9.3-2.9 13.8l-8.3 1.1c.4-2.5.9-5 1.4-7.5.5-2.5 1-4.9 1.6-7.4.6-2.5 1.2-4.9 1.9-7.4l2.1-7.5-7.9 1.4 2.3-8.5 24.2-4.4-2.4 8.5zm32.4-11.7c-1.1 3.4-2.2 6.7-3.1 9.9-1 3.2-1.9 6.4-2.7 9.5-.8 3.1-1.6 6.2-2.3 9.3-.7 3-1.4 6.1-2 9.1l-8.4 1.1 2.8-12.4-8.2.6c-.7 2.3-1.4 4.6-2 6.9-.6 2.3-1.2 4.8-1.7 7.3l-8.4 1.1c.6-2.6 1.3-5.6 2.2-8.9.9-3.3 1.9-7 3.1-11.2 1.1-3.9 2.1-7.3 3-10.2.9-2.9 1.7-5.5 2.4-7.6l8.4-1.1-4.6 15 8-.7c.3-1.1.9-3.1 1.7-5.8l3.4-10.8 8.4-1.1zm26.7 5.4l-6.6.6c-2.1.3-4.3.5-6.4.9-.4.9-.8 1.9-1.1 3-.4 1.1-.7 2.2-1 3.5 1.9-.3 3.9-.6 5.8-.8 1.9-.2 3.8-.4 5.7-.5l-2.9 8.2-1.2.1c-1.6.1-3.3.2-4.9.4-1.7.2-3.4.5-5.2.9-.5 1.2-1 2.3-1.4 3.3-.4 1.1-.7 2.1-1 3.1 2.2-.3 4.3-.6 6.4-.9 2.1-.3 4.3-.5 6.6-.6l-2.8 8.1c-3.7.2-7.3.6-10.9 1-3.6.4-7.2 1-10.8 1.5 1.6-5.2 3.3-10.3 5-15.2 1.7-4.9 3.5-9.8 5.4-14.5l-3 .2 2.5-7.6c4.6-.3 8.9-.7 13.1-1.2 4.2-.5 8.2-1 12-1.6l-3.3 8.1zm-269 108.7c-10.6 1.7-20.6 3.5-29.9 5.4-9.3 1.9-18.2 3.9-26.8 6-1.2 3.8-2.4 8.1-3.7 12.9-1.2 4.8-2.4 10.3-3.5 16.5 8.5-2.2 16.8-4.2 25.1-5.8 8.3-1.7 16.6-3.2 24.9-4.5l-9.6 37.1-5.4.8c-7.1.9-14.3 2.1-21.7 3.7-7.4 1.6-15 3.5-22.8 5.8-3.7 11.3-6.8 22.4-9.6 33.3-2.7 10.9-5.2 22-7.4 33.2l-38 8c4.7-22.7 9.9-45.1 15.6-67.2 5.7-22.2 11.8-44.2 18.5-66.2l-13.9 1.4 9.1-35.3c21.5-3.7 41.3-7.3 59.5-11 18.2-3.6 35-7.3 50.4-11l-10.8 36.9zm59.6-10c.7 3.7-.1 8.1-2.1 13.2-5.9 14.8-16.3 27-31.6 36.8 10.2 3.8 16.4 11.1 18.7 21.8l.3 1.3c.1.3.1.6.2.8 0 .2 0 .4.1.6-7.5 2.7-15.1 5.3-22.6 8.1-1.3-5.6-3.1-9.6-5.5-12.2-2.5-2.6-6.6-4.8-12.3-6.6-1.2 5.1-2.3 9.6-3.2 13.5-.9 3.9-1.6 7.2-2.2 10.2l-20.9 6.6c3.2-14.9 6.5-28.8 9.9-41.7 3.4-12.9 6.7-25.1 10.1-36.5-2.8.8-5.5 1.8-8.2 3 .4-6.4.9-12.7 1.4-19.1 8.5-3.5 19.3-6.4 32.3-8.7 22-4 33.9-.9 35.6 8.9zm-23.5 13.8c-.7-4-5-5.2-12.8-3.8-.8.1-1.6.3-2.6.5s-2.1.5-3.3.8c-3 .8-5 1.3-6 1.4 1.9.8 3.7 1.6 5.6 2.5-2.4 8.3-4.7 16.7-6.9 25.1 5.7-1.9 10.9-4.9 15.8-8.9 5.8-4.5 9.1-9.3 10-14.2.4-1.1.4-2.3.2-3.4zm166.9-38.5c-10.3 25.9-17.7 51.8-22.4 77.3-6.2 1.6-12.3 3.3-18.5 5-4.3-11-8.6-22-12.7-33.2-1.8 6-3.5 12.1-5.1 18.3-1.7 6.2-3.2 12.6-4.7 19.4l-19.8 4c2.7-12.8 5.8-25.3 9.1-37.6 3.4-12.2 7.1-24.5 11.1-36.7-.8-2.2-1.6-4.4-2.3-6.6 7.1-4.6 14.3-9.2 21.4-13.7 3.7 14.2 7.6 28.3 11.8 42.3 4.1-16.4 9.3-31.1 15.3-44 5.6 1.9 11.2 3.7 16.8 5.5zm50 9.5c-8.4 1-16.8 2-25.3 3.1l6.4 2.4c-4.1 12.3-7.7 24.1-10.7 35.3-3 11.2-5.5 22.1-7.5 32.6l-19.2 2.4c1-6 2.2-12 3.4-17.9 1.3-5.9 2.6-11.8 4.2-17.7 1.5-5.9 3.2-11.8 4.9-17.6 1.8-5.9 3.7-11.8 5.8-17.7-6.2.8-12.4 1.6-18.5 2.4 2.1-6.7 4.3-13.4 6.6-20.1 18.9-2.3 37.7-4.4 56.6-6.5-2.2 6.3-4.5 12.8-6.7 19.3z"/><linearGradient id="a" gradientUnits="userSpaceOnUse" x1="99.835" y1="256.304" x2="99.835" y2="-9.516" gradientTransform="matrix(1 .025 -.025 1 1.411 1.297)"><stop offset="0" stop-color="#fff"/><stop offset=".084" stop-color="#FFFFFC"/><stop offset=".14" stop-color="#FFFEF3"/><stop offset=".188" stop-color="#FEFCE4"/><stop offset=".231" stop-color="#FDFACF"/><stop offset=".271" stop-color="#FCF7B4"/><stop offset=".308" stop-color="#FBF392"/><stop offset=".344" stop-color="#FAEF69"/><stop offset=".378" stop-color="#F8EA3C"/><stop offset=".398" stop-color="#F7E71D"/><stop offset=".597" stop-color="#F39323"/><stop offset=".631" stop-color="#EF7E24"/><stop offset=".673" stop-color="#ED6D25"/><stop offset=".725" stop-color="#EA6226"/><stop offset=".798" stop-color="#E95B26"/><stop offset="1" stop-color="#E95926"/></linearGradient><path fill="url(#a)" stroke="#1D1D1B" stroke-width="2" stroke-miterlimit="10" d="M153.9 53.1c-10.6 2.5-20.5 4.9-29.8 7.4s-18.1 5.1-26.7 7.9c-1 3.9-1.9 8.3-2.8 13.2-.9 4.9-1.7 10.5-2.5 16.7 8.4-2.8 16.7-5.3 24.9-7.6s16.5-4.3 24.9-6.2l-7.2 37.9-5.4 1.1c-7.1 1.4-14.3 3.1-21.6 5.2-7.3 2.1-14.8 4.6-22.6 7.4-2.9 11.6-5.4 22.9-7.5 34-2 11.1-3.8 22.4-5.3 33.8l-37.8 10.6c3.3-23 7-45.9 11.3-68.5 4.2-22.6 9-45.2 14.3-67.6l-13.9 2.3 6.9-36c21.4-5.1 41.2-10.1 59.3-15 18.1-4.9 34.8-9.7 50.1-14.5l-8.6 37.9z"/><linearGradient id="b" gradientUnits="userSpaceOnUse" x1="186.939" y1="178.854" x2="186.939" y2="30.638" gradientTransform="matrix(.949 .005 .032 1.068 -5.759 3.698)"><stop offset="0" stop-color="#fff"/><stop offset=".084" stop-color="#FFFFFC"/><stop offset=".14" stop-color="#FFFEF3"/><stop offset=".188" stop-color="#FEFCE4"/><stop offset=".231" stop-color="#FDFACF"/><stop offset=".271" stop-color="#FCF7B4"/><stop offset=".308" stop-color="#FBF392"/><stop offset=".344" stop-color="#FAEF69"/><stop offset=".378" stop-color="#F8EA3C"/><stop offset=".398" stop-color="#F7E71D"/><stop offset=".597" stop-color="#F39323"/><stop offset=".631" stop-color="#EF7E24"/><stop offset=".673" stop-color="#ED6D25"/><stop offset=".725" stop-color="#EA6226"/><stop offset=".798" stop-color="#E95B26"/><stop offset="1" stop-color="#E95926"/></linearGradient><path fill="url(#b)" d="M213 51.3c.6 4.4-.1 9.4-2.1 15.1-5.7 16.7-15.6 29.9-30 39.9 9.6 5.3 15.5 14.3 17.7 26.9.1.5.2 1 .3 1.6.1.4.1.7.2 1v.7c-7.1 2.4-14.3 4.8-21.4 7.3-1.2-6.5-2.9-11.4-5.2-14.5-2.3-3.2-6.2-6.2-11.6-8.7-1.2 5.8-2.2 10.9-3 15.2-.8 4.3-1.5 8.2-2.1 11.5-6.6 1.8-13.2 3.7-19.8 5.6 3-16.8 6.2-32.5 9.5-47 3.2-14.5 6.5-28.2 9.8-41.2-2.6.7-5.2 1.6-7.7 2.7l1.5-21.9c8.1-3.3 18.3-5.8 30.5-7.3 20.8-2.8 31.9 1.7 33.4 13.1zm-22.3 14.1c-.6-4.6-4.6-6.5-12-5.4-.7.1-1.5.2-2.5.4-.9.2-1.9.4-3.1.6-2.8.6-4.7 1-5.6 1.1l5.3 3.3c-2.3 9.4-4.5 18.9-6.7 28.4 5.4-1.7 10.4-4.6 15-8.8 5.5-4.8 8.7-9.9 9.5-15.6.3-1.3.3-2.7.1-4z"/><path stroke="#1D1D1B" stroke-width="2" stroke-miterlimit="10" d="M213 51.3c.6 4.4-.1 9.4-2.1 15.1-5.7 16.7-15.6 29.9-30 39.9 9.6 5.3 15.5 14.3 17.7 26.9.1.5.2 1 .3 1.6.1.4.1.7.2 1v.7c-7.1 2.4-14.3 4.8-21.4 7.3-1.2-6.5-2.9-11.4-5.2-14.5-2.3-3.2-6.2-6.2-11.6-8.7-1.2 5.8-2.2 10.9-3 15.2-.8 4.3-1.5 8.2-2.1 11.5-6.6 1.8-13.2 3.7-19.8 5.6 3-16.8 6.2-32.5 9.5-47 3.2-14.5 6.5-28.2 9.8-41.2-2.6.7-5.2 1.6-7.7 2.7l1.5-21.9c8.1-3.3 18.3-5.8 30.5-7.3 20.8-2.8 31.9 1.7 33.4 13.1zm-22.3 14.1c-.6-4.6-4.6-6.5-12-5.4-.7.1-1.5.2-2.5.4-.9.2-1.9.4-3.1.6-2.8.6-4.7 1-5.6 1.1l5.3 3.3c-2.3 9.4-4.5 18.9-6.7 28.4 5.4-1.7 10.4-4.6 15-8.8 5.5-4.8 8.7-9.9 9.5-15.6.3-1.3.3-2.7.1-4z" fill="none"/><linearGradient id="c" gradientUnits="userSpaceOnUse" x1="311.122" y1="268.517" x2="301.643" y2="149.248" gradientTransform="matrix(1 .014 -.014 1 .758 .655)"><stop offset="0" stop-color="#fff"/><stop offset=".084" stop-color="#FFFFFC"/><stop offset=".14" stop-color="#FFFEF3"/><stop offset=".188" stop-color="#FEFCE4"/><stop offset=".231" stop-color="#FDFACF"/><stop offset=".271" stop-color="#FCF7B4"/><stop offset=".308" stop-color="#FBF392"/><stop offset=".344" stop-color="#FAEF69"/><stop offset=".378" stop-color="#F8EA3C"/><stop offset=".398" stop-color="#F7E71D"/><stop offset=".597" stop-color="#F39323"/><stop offset=".631" stop-color="#EF7E24"/><stop offset=".673" stop-color="#ED6D25"/><stop offset=".725" stop-color="#EA6226"/><stop offset=".798" stop-color="#E95B26"/><stop offset="1" stop-color="#E95926"/></linearGradient><path fill="url(#c)" d="M334.2 160.4c1.7 2.5 3 5.1 3.6 7.7 1 3.9 1 9 0 15.3-1.9 11.4-6.8 22.8-14.9 34.4-8.8 12.6-18.6 21.2-29.8 25.4-6.8 2.6-12.5 2.7-17.2.2-4.5-2.5-7.8-7-9.8-13.6-2.1-6.7-2.6-14.4-1.6-23 1.6-13.8 6.8-27 15.4-39.2 9.5-13.7 20.9-21.8 33.5-24.7 13.7-3.2 22.7.8 27.2 11.4-2.2 2-4.3 4-6.4 6.1zm-13.4 9c-2.3-4.2-6.6-5.5-13-3.8-.5.1-.9.2-1.4.4-7.7 2.6-13.9 9.7-18.4 21.3-4.2 10.9-5 20.3-2.7 28 1.8 5.9 5.4 7.9 10.6 6.1 6.5-2.2 12-8.1 16.6-17.3 4.6-8.8 6.1-16.3 4.5-22.5-.5-2-1.5-3.8-2.8-5.4l6.6-6.8z"/><path stroke="#1D1D1B" stroke-width="2" stroke-miterlimit="10" d="M334.2 160.4c1.7 2.5 3 5.1 3.6 7.7 1 3.9 1 9 0 15.3-1.9 11.4-6.8 22.8-14.9 34.4-8.8 12.6-18.6 21.2-29.8 25.4-6.8 2.6-12.5 2.7-17.2.2-4.5-2.5-7.8-7-9.8-13.6-2.1-6.7-2.6-14.4-1.6-23 1.6-13.8 6.8-27 15.4-39.2 9.5-13.7 20.9-21.8 33.5-24.7 13.7-3.2 22.7.8 27.2 11.4-2.2 2-4.3 4-6.4 6.1zm-13.4 9c-2.3-4.2-6.6-5.5-13-3.8-.5.1-.9.2-1.4.4-7.7 2.6-13.9 9.7-18.4 21.3-4.2 10.9-5 20.3-2.7 28 1.8 5.9 5.4 7.9 10.6 6.1 6.5-2.2 12-8.1 16.6-17.3 4.6-8.8 6.1-16.3 4.5-22.5-.5-2-1.5-3.8-2.8-5.4l6.6-6.8z" fill="none"/><linearGradient id="d" gradientUnits="userSpaceOnUse" x1="245.813" y1="166.252" x2="245.813" y2="27.386" gradientTransform="matrix(1 .025 -.025 1 1.411 1.297)"><stop offset="0" stop-color="#fff"/><stop offset=".084" stop-color="#FFFFFC"/><stop offset=".14" stop-color="#FFFEF3"/><stop offset=".188" stop-color="#FEFCE4"/><stop offset=".231" stop-color="#FDFACF"/><stop offset=".271" stop-color="#FCF7B4"/><stop offset=".308" stop-color="#FBF392"/><stop offset=".344" stop-color="#FAEF69"/><stop offset=".378" stop-color="#F8EA3C"/><stop offset=".398" stop-color="#F7E71D"/><stop offset=".597" stop-color="#F39323"/><stop offset=".631" stop-color="#EF7E24"/><stop offset=".673" stop-color="#ED6D25"/><stop offset=".725" stop-color="#EA6226"/><stop offset=".798" stop-color="#E95B26"/><stop offset="1" stop-color="#E95926"/></linearGradient><path fill="url(#d)" d="M277.5 56c1.7 2.5 2.9 5.1 3.6 7.8 1 3.9.9 9-.2 15.3-2 11.4-7.1 22.7-15.2 34.3-8.9 12.5-18.8 21-30.1 25.1-6.8 2.5-12.6 2.5-17.2 0-4.4-2.5-7.7-7.1-9.7-13.8-2-6.7-2.5-14.4-1.4-23.1 1.8-13.8 7.1-27 15.8-39.1 9.7-13.6 21.1-21.6 33.7-24.4 13.8-3 22.7 1.1 27.1 11.7-2.1 2.1-4.2 4.2-6.4 6.2zm-13.4 8.9c-2.2-4.2-6.5-5.5-12.9-3.9-.5.1-.9.2-1.4.4-7.7 2.5-14 9.5-18.6 21.1-4.3 10.8-5.2 20.3-3 28 1.7 6 5.3 8 10.6 6.3 6.6-2.2 12.1-7.9 16.8-17.1 4.7-8.8 6.3-16.2 4.7-22.5-.5-2-1.4-3.8-2.8-5.5 2.1-2.3 4.3-4.6 6.6-6.8z"/><path stroke="#1D1D1B" stroke-width="2" stroke-miterlimit="10" d="M277.5 56c1.7 2.5 2.9 5.1 3.6 7.8 1 3.9.9 9-.2 15.3-2 11.4-7.1 22.7-15.2 34.3-8.9 12.5-18.8 21-30.1 25.1-6.8 2.5-12.6 2.5-17.2 0-4.4-2.5-7.7-7.1-9.7-13.8-2-6.7-2.5-14.4-1.4-23.1 1.8-13.8 7.1-27 15.8-39.1 9.7-13.6 21.1-21.6 33.7-24.4 13.8-3 22.7 1.1 27.1 11.7-2.1 2.1-4.2 4.2-6.4 6.2zm-13.4 8.9c-2.2-4.2-6.5-5.5-12.9-3.9-.5.1-.9.2-1.4.4-7.7 2.5-14 9.5-18.6 21.1-4.3 10.8-5.2 20.3-3 28 1.7 6 5.3 8 10.6 6.3 6.6-2.2 12.1-7.9 16.8-17.1 4.7-8.8 6.3-16.2 4.7-22.5-.5-2-1.4-3.8-2.8-5.5 2.1-2.3 4.3-4.6 6.6-6.8z" fill="none"/><linearGradient id="e" gradientUnits="userSpaceOnUse" x1="314.921" y1="132.269" x2="314.921" y2="29.012" gradientTransform="matrix(1.056 .022 -.029 1 3.624 1.499)"><stop offset="0" stop-color="#fff"/><stop offset=".084" stop-color="#FFFFFC"/><stop offset=".14" stop-color="#FFFEF3"/><stop offset=".188" stop-color="#FEFCE4"/><stop offset=".231" stop-color="#FDFACF"/><stop offset=".271" stop-color="#FCF7B4"/><stop offset=".308" stop-color="#FBF392"/><stop offset=".344" stop-color="#FAEF69"/><stop offset=".378" stop-color="#F8EA3C"/><stop offset=".398" stop-color="#F7E71D"/><stop offset=".597" stop-color="#F39323"/><stop offset=".631" stop-color="#EF7E24"/><stop offset=".673" stop-color="#ED6D25"/><stop offset=".725" stop-color="#EA6226"/><stop offset=".798" stop-color="#E95B26"/><stop offset="1" stop-color="#E95926"/></linearGradient><path fill="url(#e)" d="M395.1 36.8c-4.3 4.3-7.2 7.9-8.9 10.7-.3.5-.8 1.3-1.4 2.5-.6 1.2-1.3 2.7-2.1 4.6-8.8 19.2-17.2 38.6-25.1 58.5l-22.4 3.1c1.4-3.9 3.1-8.5 5.2-13.9s4.8-11.5 8.1-18.4c-10.1 10.3-20.2 20.8-30.1 31.5-3.4-9.6-6.7-19.2-10-28.9-2.7 6.3-5.1 12.5-7.3 18.4-2.2 5.9-4 11.7-5.7 17.3l-22.3 3.3c3.9-12.3 8-24.3 12.5-35.9 4.4-11.7 9.1-23.1 14.2-34.4l-2.3-6.3c8.2-4.2 16.4-8.4 24.7-12.4 2.8 13.9 5.8 27.7 9 41.4 14.1-15.7 28.4-30.9 43-45.7 7 1.7 14 3.2 20.9 4.6z"/><path stroke="#1D1D1B" stroke-width="2" stroke-miterlimit="10" d="M395.1 36.8c-4.3 4.3-7.2 7.9-8.9 10.7-.3.5-.8 1.3-1.4 2.5-.6 1.2-1.3 2.7-2.1 4.6-8.8 19.2-17.2 38.6-25.1 58.5l-22.4 3.1c1.4-3.9 3.1-8.5 5.2-13.9s4.8-11.5 8.1-18.4c-10.1 10.3-20.2 20.8-30.1 31.5-3.4-9.6-6.7-19.2-10-28.9-2.7 6.3-5.1 12.5-7.3 18.4-2.2 5.9-4 11.7-5.7 17.3l-22.3 3.3c3.9-12.3 8-24.3 12.5-35.9 4.4-11.7 9.1-23.1 14.2-34.4l-2.3-6.3c8.2-4.2 16.4-8.4 24.7-12.4 2.8 13.9 5.8 27.7 9 41.4 14.1-15.7 28.4-30.9 43-45.7 7 1.7 14 3.2 20.9 4.6z" fill="none"/><linearGradient id="f" gradientUnits="userSpaceOnUse" x1="403.821" y1="120.326" x2="403.821" y2="64.417" gradientTransform="matrix(1 .025 -.025 1 1.411 1.297)"><stop offset="0" stop-color="#fff"/><stop offset=".084" stop-color="#FFFFFC"/><stop offset=".14" stop-color="#FFFEF3"/><stop offset=".188" stop-color="#FEFCE4"/><stop offset=".231" stop-color="#FDFACF"/><stop offset=".271" stop-color="#FCF7B4"/><stop offset=".308" stop-color="#FBF392"/><stop offset=".344" stop-color="#FAEF69"/><stop offset=".378" stop-color="#F8EA3C"/><stop offset=".398" stop-color="#F7E71D"/><stop offset=".597" stop-color="#F39323"/><stop offset=".631" stop-color="#EF7E24"/><stop offset=".673" stop-color="#ED6D25"/><stop offset=".725" stop-color="#EA6226"/><stop offset=".798" stop-color="#E95B26"/><stop offset="1" stop-color="#E95926"/></linearGradient><path fill="url(#f)" stroke="#1D1D1B" stroke-miterlimit="10" d="M414.2 84.9l-10.8 1.9 2.8.9c-1.5 5.3-2.8 10.3-4 15.1-1.1 4.8-2.1 9.3-2.9 13.8l-8.3 1.1c.4-2.5.9-5 1.4-7.5.5-2.5 1-4.9 1.6-7.4l1.8-7.4 2.1-7.5-7.9 1.4 2.3-8.5 24.2-4.4-2.3 8.5z"/><linearGradient id="g" gradientUnits="userSpaceOnUse" x1="429.312" y1="113.152" x2="429.312" y2="60.587" gradientTransform="matrix(1 .025 -.025 1 1.411 1.297)"><stop offset="0" stop-color="#fff"/><stop offset=".084" stop-color="#FFFFFC"/><stop offset=".14" stop-color="#FFFEF3"/><stop offset=".188" stop-color="#FEFCE4"/><stop offset=".231" stop-color="#FDFACF"/><stop offset=".271" stop-color="#FCF7B4"/><stop offset=".308" stop-color="#FBF392"/><stop offset=".344" stop-color="#FAEF69"/><stop offset=".378" stop-color="#F8EA3C"/><stop offset=".398" stop-color="#F7E71D"/><stop offset=".597" stop-color="#F39323"/><stop offset=".631" stop-color="#EF7E24"/><stop offset=".673" stop-color="#ED6D25"/><stop offset=".725" stop-color="#EA6226"/><stop offset=".798" stop-color="#E95B26"/><stop offset="1" stop-color="#E95926"/></linearGradient><path fill="url(#g)" stroke="#1D1D1B" stroke-miterlimit="10" d="M446.6 73.3c-1.1 3.4-2.2 6.7-3.1 9.9-1 3.2-1.9 6.4-2.7 9.5-.8 3.1-1.6 6.2-2.3 9.3-.7 3-1.4 6.1-2 9.1l-8.4 1.1 2.8-12.4-8.2.6c-.7 2.3-1.4 4.6-2 6.9-.6 2.3-1.2 4.8-1.7 7.3l-8.4 1.1c.6-2.6 1.3-5.6 2.2-8.9.9-3.3 1.9-7 3.1-11.2 1.1-3.9 2.1-7.3 3-10.2.9-2.9 1.7-5.5 2.4-7.6l8.4-1.1-4.6 15 8-.6c.3-1.1.9-3.1 1.7-5.8l3.4-10.8 8.4-1.2z"/><linearGradient id="h" gradientUnits="userSpaceOnUse" x1="459.656" y1="107.634" x2="459.656" y2="64.305" gradientTransform="matrix(1 .025 -.025 1 1.411 1.297)"><stop offset="0" stop-color="#fff"/><stop offset=".084" stop-color="#FFFFFC"/><stop offset=".14" stop-color="#FFFEF3"/><stop offset=".188" stop-color="#FEFCE4"/><stop offset=".231" stop-color="#FDFACF"/><stop offset=".271" stop-color="#FCF7B4"/><stop offset=".308" stop-color="#FBF392"/><stop offset=".344" stop-color="#FAEF69"/><stop offset=".378" stop-color="#F8EA3C"/><stop offset=".398" stop-color="#F7E71D"/><stop offset=".597" stop-color="#F39323"/><stop offset=".631" stop-color="#EF7E24"/><stop offset=".673" stop-color="#ED6D25"/><stop offset=".725" stop-color="#EA6226"/><stop offset=".798" stop-color="#E95B26"/><stop offset="1" stop-color="#E95926"/></linearGradient><path fill="url(#h)" stroke="#1D1D1B" stroke-miterlimit="10" d="M473.3 78.7l-6.6.6c-2.1.3-4.3.5-6.4.9-.4.9-.8 1.9-1.1 3-.4 1.1-.7 2.2-1 3.5 1.9-.3 3.9-.6 5.8-.8 1.9-.2 3.8-.4 5.7-.5l-2.9 8.2-1.2.1c-1.6.1-3.3.2-4.9.4-1.7.2-3.4.5-5.2.9-.5 1.2-1 2.3-1.4 3.3-.4 1.1-.7 2.1-1 3.1 2.2-.3 4.3-.6 6.4-.9 2.1-.3 4.3-.5 6.6-.6l-2.8 8.1c-3.7.2-7.3.6-10.9 1-3.6.4-7.2 1-10.8 1.5 1.6-5.2 3.3-10.3 5-15.2 1.7-4.9 3.5-9.8 5.4-14.5l-3 .2 2.5-7.6c4.6-.3 8.9-.7 13.1-1.2 4.2-.5 8.2-1 12-1.6l-3.3 8.1z"/><linearGradient id="i" gradientUnits="userSpaceOnUse" x1="160.307" y1="376.567" x2="160.307" y2="134.596" gradientTransform="matrix(1 .014 -.014 1 .758 .655)"><stop offset="0" stop-color="#fff"/><stop offset=".084" stop-color="#FFFFFC"/><stop offset=".14" stop-color="#FFFEF3"/><stop offset=".188" stop-color="#FEFCE4"/><stop offset=".231" stop-color="#FDFACF"/><stop offset=".271" stop-color="#FCF7B4"/><stop offset=".308" stop-color="#FBF392"/><stop offset=".344" stop-color="#FAEF69"/><stop offset=".378" stop-color="#F8EA3C"/><stop offset=".398" stop-color="#F7E71D"/><stop offset=".597" stop-color="#F39323"/><stop offset=".631" stop-color="#EF7E24"/><stop offset=".673" stop-color="#ED6D25"/><stop offset=".725" stop-color="#EA6226"/><stop offset=".798" stop-color="#E95B26"/><stop offset="1" stop-color="#E95926"/></linearGradient><path fill="url(#i)" stroke="#1D1D1B" stroke-width="2" stroke-miterlimit="10" d="M216.5 175.4c-10.6 1.7-20.6 3.5-29.9 5.4-9.3 1.9-18.2 3.9-26.8 6-1.2 3.8-2.4 8.1-3.7 12.9-1.2 4.8-2.4 10.3-3.5 16.5 8.5-2.2 16.8-4.1 25.1-5.8 8.3-1.7 16.6-3.2 24.9-4.5l-9.6 37.1-5.4.8c-7.1.9-14.3 2.1-21.7 3.7-7.3 1.6-15 3.5-22.8 5.8-3.7 11.3-6.8 22.4-9.6 33.3-2.7 10.9-5.2 22-7.4 33.2l-38 8c4.7-22.7 9.9-45.1 15.6-67.2 5.7-22.2 11.8-44.2 18.5-66.2l-13.9 1.4 9.1-35.3c21.5-3.7 41.3-7.3 59.5-11 18.2-3.6 35-7.3 50.4-11l-10.8 36.9z"/><linearGradient id="j" gradientUnits="userSpaceOnUse" x1="249.772" y1="264.421" x2="215.753" y2="158.498" gradientTransform="matrix(1 .014 -.014 1 .758 .655)"><stop offset="0" stop-color="#fff"/><stop offset=".084" stop-color="#FFFFFC"/><stop offset=".14" stop-color="#FFFEF3"/><stop offset=".188" stop-color="#FEFCE4"/><stop offset=".231" stop-color="#FDFACF"/><stop offset=".271" stop-color="#FCF7B4"/><stop offset=".308" stop-color="#FBF392"/><stop offset=".344" stop-color="#FAEF69"/><stop offset=".378" stop-color="#F8EA3C"/><stop offset=".398" stop-color="#F7E71D"/><stop offset=".597" stop-color="#F39323"/><stop offset=".631" stop-color="#EF7E24"/><stop offset=".673" stop-color="#ED6D25"/><stop offset=".725" stop-color="#EA6226"/><stop offset=".798" stop-color="#E95B26"/><stop offset="1" stop-color="#E95926"/></linearGradient><path fill="url(#j)" d="M270 165.3c.7 3.7-.1 8.1-2.1 13.2-5.9 14.8-16.3 27-31.6 36.8 10.2 3.8 16.4 11.1 18.7 21.8l.3 1.3c.1.3.1.6.2.8 0 .2 0 .4.1.6-7.5 2.7-15.1 5.3-22.6 8.1-1.3-5.6-3.1-9.6-5.5-12.2-2.5-2.6-6.6-4.8-12.3-6.6-1.2 5.1-2.3 9.6-3.2 13.5-.9 3.9-1.6 7.3-2.2 10.2l-20.9 6.6c3.2-14.9 6.5-28.8 9.9-41.7 3.4-12.9 6.7-25.1 10.1-36.5-2.8.8-5.5 1.8-8.2 3 .4-6.4.9-12.7 1.4-19.1 8.5-3.5 19.3-6.4 32.3-8.7 22.1-3.9 33.9-.8 35.6 8.9zm-23.4 13.8c-.7-4-5-5.2-12.8-3.8-.8.1-1.6.3-2.6.5s-2.1.5-3.3.8c-3 .8-5 1.3-6 1.4 1.9.8 3.7 1.6 5.6 2.5-2.4 8.3-4.6 16.7-6.9 25.1 5.7-1.9 10.9-4.9 15.8-8.8 5.8-4.5 9.1-9.2 10-14.2.3-1.2.4-2.4.2-3.5z"/><path stroke="#1D1D1B" stroke-width="2" stroke-miterlimit="10" d="M270 165.3c.7 3.7-.1 8.1-2.1 13.2-5.9 14.8-16.3 27-31.6 36.8 10.2 3.8 16.4 11.1 18.7 21.8l.3 1.3c.1.3.1.6.2.8 0 .2 0 .4.1.6-7.5 2.7-15.1 5.3-22.6 8.1-1.3-5.6-3.1-9.6-5.5-12.2-2.5-2.6-6.6-4.8-12.3-6.6-1.2 5.1-2.3 9.6-3.2 13.5-.9 3.9-1.6 7.3-2.2 10.2l-20.9 6.6c3.2-14.9 6.5-28.8 9.9-41.7 3.4-12.9 6.7-25.1 10.1-36.5-2.8.8-5.5 1.8-8.2 3 .4-6.4.9-12.7 1.4-19.1 8.5-3.5 19.3-6.4 32.3-8.7 22.1-3.9 33.9-.8 35.6 8.9zm-23.4 13.8c-.7-4-5-5.2-12.8-3.8-.8.1-1.6.3-2.6.5s-2.1.5-3.3.8c-3 .8-5 1.3-6 1.4 1.9.8 3.7 1.6 5.6 2.5-2.4 8.3-4.6 16.7-6.9 25.1 5.7-1.9 10.9-4.9 15.8-8.8 5.8-4.5 9.1-9.2 10-14.2.3-1.2.4-2.4.2-3.5z" fill="none"/><linearGradient id="k" gradientUnits="userSpaceOnUse" x1="377.315" y1="248.585" x2="371.084" y2="141.101" gradientTransform="matrix(1 .014 -.014 1 .758 .655)"><stop offset="0" stop-color="#fff"/><stop offset=".084" stop-color="#FFFFFC"/><stop offset=".14" stop-color="#FFFEF3"/><stop offset=".188" stop-color="#FEFCE4"/><stop offset=".231" stop-color="#FDFACF"/><stop offset=".271" stop-color="#FCF7B4"/><stop offset=".308" stop-color="#FBF392"/><stop offset=".344" stop-color="#FAEF69"/><stop offset=".378" stop-color="#F8EA3C"/><stop offset=".398" stop-color="#F7E71D"/><stop offset=".597" stop-color="#F39323"/><stop offset=".631" stop-color="#EF7E24"/><stop offset=".673" stop-color="#ED6D25"/><stop offset=".725" stop-color="#EA6226"/><stop offset=".798" stop-color="#E95B26"/><stop offset="1" stop-color="#E95926"/></linearGradient><path fill="url(#k)" d="M413.3 146.7c-10.3 25.9-17.7 51.8-22.4 77.3-6.2 1.6-12.3 3.3-18.5 5-4.3-11-8.6-22-12.7-33.2-1.8 6-3.5 12.1-5.1 18.3-1.7 6.2-3.2 12.6-4.7 19.4l-19.8 4c2.7-12.8 5.8-25.3 9.1-37.6 3.4-12.2 7.1-24.5 11.1-36.7-.8-2.2-1.6-4.4-2.3-6.6 7.1-4.6 14.3-9.2 21.4-13.7 3.7 14.2 7.6 28.3 11.8 42.3 4.1-16.4 9.3-31.1 15.3-44 5.7 1.8 11.2 3.6 16.8 5.5z"/><path stroke="#1D1D1B" stroke-width="2" stroke-miterlimit="10" d="M413.3 146.7c-10.3 25.9-17.7 51.8-22.4 77.3-6.2 1.6-12.3 3.3-18.5 5-4.3-11-8.6-22-12.7-33.2-1.8 6-3.5 12.1-5.1 18.3-1.7 6.2-3.2 12.6-4.7 19.4l-19.8 4c2.7-12.8 5.8-25.3 9.1-37.6 3.4-12.2 7.1-24.5 11.1-36.7-.8-2.2-1.6-4.4-2.3-6.6 7.1-4.6 14.3-9.2 21.4-13.7 3.7 14.2 7.6 28.3 11.8 42.3 4.1-16.4 9.3-31.1 15.3-44 5.7 1.8 11.2 3.6 16.8 5.5z" fill="none"/><linearGradient id="l" gradientUnits="userSpaceOnUse" x1="444.34" y1="243.855" x2="438.187" y2="137.722" gradientTransform="matrix(1 .014 -.014 1 .758 .655)"><stop offset="0" stop-color="#fff"/><stop offset=".084" stop-color="#FFFFFC"/><stop offset=".14" stop-color="#FFFEF3"/><stop offset=".188" stop-color="#FEFCE4"/><stop offset=".231" stop-color="#FDFACF"/><stop offset=".271" stop-color="#FCF7B4"/><stop offset=".308" stop-color="#FBF392"/><stop offset=".344" stop-color="#FAEF69"/><stop offset=".378" stop-color="#F8EA3C"/><stop offset=".398" stop-color="#F7E71D"/><stop offset=".597" stop-color="#F39323"/><stop offset=".631" stop-color="#EF7E24"/><stop offset=".673" stop-color="#ED6D25"/><stop offset=".725" stop-color="#EA6226"/><stop offset=".798" stop-color="#E95B26"/><stop offset="1" stop-color="#E95926"/></linearGradient><path fill="url(#l)" d="M463.3 156.1c-8.4 1-16.8 2-25.3 3.1l6.4 2.4c-4.1 12.3-7.7 24.1-10.7 35.3-3 11.2-5.5 22.1-7.5 32.6l-19.2 2.4c1-6 2.2-12 3.4-17.9 1.3-5.9 2.6-11.8 4.2-17.7 1.5-5.9 3.2-11.8 4.9-17.6 1.8-5.9 3.7-11.8 5.8-17.7-6.2.8-12.4 1.6-18.5 2.4 2.1-6.7 4.3-13.4 6.6-20.1 18.9-2.3 37.7-4.4 56.6-6.5-2.2 6.3-4.4 12.8-6.7 19.3z"/><path stroke="#1D1D1B" stroke-width="2" stroke-miterlimit="10" d="M463.3 156.1c-8.4 1-16.8 2-25.3 3.1l6.4 2.4c-4.1 12.3-7.7 24.1-10.7 35.3-3 11.2-5.5 22.1-7.5 32.6l-19.2 2.4c1-6 2.2-12 3.4-17.9 1.3-5.9 2.6-11.8 4.2-17.7 1.5-5.9 3.2-11.8 4.9-17.6 1.8-5.9 3.7-11.8 5.8-17.7-6.2.8-12.4 1.6-18.5 2.4 2.1-6.7 4.3-13.4 6.6-20.1 18.9-2.3 37.7-4.4 56.6-6.5-2.2 6.3-4.4 12.8-6.7 19.3z" fill="none"/><path d="M406.8 263v.2l-1.8 9.8h-2.7l.1-.8c-.1.6-.6.8-1.5.8h-5.5c-.8 0-1.5-.3-2-.8s-.8-1.2-.8-2c0-.2 0-.4.1-.6l.2-1c.2-1 .8-1.6 1.9-1.9l9.1-2.8c.1-.4.1-.6.1-.7 0-.3-.1-.5-.4-.5h-6.4c-.3 0-.5.2-.6.5l-.2 1.4h-2.8l.3-1.4c.2-.9.6-1.7 1.4-2.3.8-.7 1.6-1 2.5-1h6.4c.8 0 1.5.3 2 .8s.8 1.2.8 2v.3zm-10.1 5.6c-.9.3-1.3.6-1.3 1.1 0 .3.2.5.5.5h6.4c.3 0 .5-.2.6-.6l.5-2.9-6.7 1.9zm28.3-5.6v.2l-1.7 9.7h-2.7l1.7-9.7c0-.3-.2-.5-.5-.5h-6.4c-.3 0-.5.2-.6.5l-1.8 9.8h-2.8l2.3-13h2.8l-.1.8c.1-.5.6-.8 1.5-.8h5.5c.8 0 1.5.3 2 .8s.8 1.2.8 2v.2zm13.7 10l.1-.8c-.1.6-.6.8-1.5.8h-5.5c-.8 0-1.5-.3-2-.8s-.8-1.2-.8-2c0-.2 0-.4.1-.6l1.1-6.4c.2-.9.6-1.7 1.4-2.3.8-.7 1.6-1 2.5-1h5.5c.3 0 .6.1.8.2.4.2.5.4.4.6l1.7-9.9h2.7l-3.9 22.1h-2.6zm1.7-9.8c0-.3-.2-.5-.5-.5h-6.4c-.3 0-.5.2-.6.5l-1.1 6.4c0 .3.2.5.5.5h6.4c.3 0 .5-.2.6-.6l1.1-6.3zm23.8-.4l-1.2 6.9c0 .3.2.5.5.5h3.6l-.5 2.8h-3.6c-.8 0-1.5-.3-2-.8s-.8-1.2-.8-2v-.6l1.2-6.9h-2.2l.5-2.8h2.2l1.1-6.3h2.8l-1.1 6.3h2.8l-.5 2.8h-2.8zm22.3.2v.2l-1.7 9.7h-2.8l1.7-9.7c0-.3-.1-.5-.5-.5h-6.4c-.3 0-.5.2-.6.5l-1.7 9.7h-2.8l3.9-22.1h2.7l-1.7 9.9c.1-.5.6-.8 1.5-.8h5.5c.8 0 1.5.3 2 .8s.8 1.2.8 2v.3zm18.2 0v.2l-.2 1.3c-.2.9-.6 1.7-1.4 2.3-.8.6-1.6 1-2.5 1h-5l.5-2.8h5c.5 0 .8-.6.8-1.7 0-.4-.1-.6-.4-.6h-6.4c-.3 0-.5.2-.6.5l-1.1 6.4c0 .3.2.5.5.5h9.7l-.5 2.8h-9.7c-.8 0-1.5-.3-2-.8s-.8-1.2-.8-2c0-.2 0-.4.1-.6l1.1-6.4c.2-.9.6-1.7 1.4-2.3.8-.7 1.6-1 2.5-1h6.4c.8 0 1.5.3 2 .8s.8 1.2.8 2v.4zm-342.6 28.4h-7.7l-3.8 21.7h-3.8l3.8-21.7h-7.7l.7-3.8h19.2l-.7 3.8zm30.3 0h-17.9c-.4 0-.7.2-.8.7l-1.1 6.4h15.4l-.7 3.8h-15.3l-1.1 6.5c0 .3.2.5.5.5h17.9l-.7 3.8h-18.5c-.9 0-1.7-.3-2.3-.9-.6-.6-.9-1.4-.9-2.3 0-.2 0-.4.1-.7l3.1-17.9c.2-1.1.7-2 1.6-2.7.8-.8 1.8-1.1 2.9-1.1h18.5l-.7 3.9zm38.4-.6c0 .2 0 .4-.1.6l-3.8 21.7h-3.8l3.7-21.2c0-.3-.2-.5-.5-.5h-7.3c-.4 0-.7.2-.8.7l-3.7 21.1h-3.8l3.7-21.2c0-.3-.2-.5-.5-.5h-7.3c-.4 0-.7.2-.8.7l-3.7 21.1h-3.8l3.8-21.7c.2-1.1.7-2 1.6-2.7.8-.8 1.8-1.1 2.9-1.1h7.7c.6 0 1.1.3 1.7.8.6.6.8 1.1.7 1.7.1-.6.5-1.1 1.3-1.7.7-.6 1.4-.8 2.1-.8h7.7c.9 0 1.7.3 2.3.9.4.4.7 1.1.7 2.1zm32 0c0 .2 0 .4-.1.6l-1.5 9c-.2 1-.7 1.9-1.6 2.7-.9.8-1.9 1.2-2.9 1.2h-14.7l-1.6 8.9h-3.8l4.5-25.6h18.5c.9 0 1.7.3 2.3.9.6.6.9 1.3.9 2.3zm-4.5.6h-14.1l-1.6 9h14.1c.4 0 .7-.2.7-.7l1.3-7.8c.1-.4-.1-.5-.4-.5zm21.4 21.7h-12.8l4.5-25.6h3.8l-3.8 21.7h8.9l-.6 3.9zm34.2-21.7h-17.9c-.4 0-.7.2-.8.7l-1.1 6.4h15.3l-.7 3.8h-15.3l-1.1 6.5c0 .3.2.5.5.5h17.9l-.7 3.8h-18.5c-.9 0-1.7-.3-2.3-.9s-.9-1.4-.9-2.3c0-.2 0-.4.1-.7l3.1-17.9c.2-1.1.7-2 1.6-2.7.8-.8 1.8-1.1 2.9-1.1h18.5l-.6 3.9zm46.4-.6c0 .2 0 .4-.1.6l-3.1 17.9c-.2 1-.7 2-1.6 2.7-.9.7-1.9 1.1-2.9 1.1h-14.7c-.9 0-1.7-.3-2.3-.9s-.9-1.4-.9-2.3c0-.2 0-.4.1-.7l3.1-17.9c.2-1.1.7-2 1.6-2.7.8-.8 1.8-1.1 2.9-1.1h14.6c.9 0 1.7.3 2.3.9.7.7 1 1.4 1 2.4zm-4.6.6h-13.4c-.4 0-.7.2-.8.7l-2.9 16.7c0 .3.2.5.5.5h13.4c.4 0 .7-.2.8-.7l2.9-16.7c0-.4-.1-.5-.5-.5zm36.4 0h-17.9c-.4 0-.7.2-.8.7l-1.1 6.4h15.3l-.7 3.8h-15.3l-1.9 10.9h-3.8l3.8-21.7c.2-1.1.7-2 1.6-2.7.8-.8 1.8-1.1 2.9-1.1h18.5l-.6 3.7zm44.8-.6c0 .2 0 .4-.1.6l-3.1 17.9c-.2 1-.7 2-1.6 2.7-.9.7-1.9 1.1-2.9 1.1h-18.5l4.5-25.6h18.5c.9 0 1.7.3 2.3.9.6.7.9 1.4.9 2.4zm-4.5.6h-14.1l-3.1 17.9h14c.4 0 .7-.2.8-.7l2.9-16.7c0-.4-.1-.5-.5-.5zm36.5-.6c0 .2 0 .4-.1.6l-3.1 17.9c-.2 1-.7 2-1.6 2.7-.9.7-1.9 1.1-2.9 1.1h-14.7c-.9 0-1.7-.3-2.3-.9-.6-.6-.9-1.4-.9-2.3 0-.2 0-.4.1-.7l3.1-17.9c.2-1.1.7-2 1.6-2.7.8-.8 1.8-1.1 2.9-1.1h14.7c.9 0 1.7.3 2.3.9.6.7.9 1.4.9 2.4zm-4.5.6h-13.4c-.4 0-.7.2-.8.7l-2.9 16.7c0 .3.2.5.5.5h13.4c.4 0 .7-.2.8-.7l2.9-16.7c0-.4-.2-.5-.5-.5zm42.8-.6c0 .2 0 .4-.1.6l-3.8 21.7h-3.8l3.7-21.2c0-.3-.2-.5-.5-.5h-7.3c-.4 0-.7.2-.8.7l-3.7 21.1h-3.9l3.7-21.2c0-.3-.2-.5-.5-.5h-7.3c-.4 0-.7.2-.8.7l-3.7 21.1h-3.8l3.8-21.7c.2-1.1.7-2 1.6-2.7.8-.8 1.8-1.1 2.9-1.1h7.7c.6 0 1.1.3 1.7.8.6.6.8 1.1.7 1.7.1-.6.5-1.1 1.3-1.7.7-.6 1.4-.8 2.1-.8h7.7c.9 0 1.7.3 2.3.9.5.4.8 1.1.8 2.1z"/><path d="M404.3 263v.2l-1.7 9.7h-2.7l.1-.8c-.1.6-.6.8-1.5.8h-5.5c-.8 0-1.5-.3-2-.8s-.8-1.2-.8-2c0-.2 0-.4.1-.6l.2-1c.2-1 .8-1.6 1.9-1.9l9.1-2.8c.1-.4.1-.6.1-.7 0-.3-.1-.5-.4-.5h-6.4c-.3 0-.5.2-.6.5l-.2 1.4h-3l.3-1.4c.2-.9.6-1.7 1.4-2.3.8-.7 1.6-1 2.5-1h6.4c.8 0 1.5.3 2 .8s.8 1.2.8 2v.4zm-10 5.6c-.9.3-1.3.6-1.3 1.1 0 .3.2.5.5.5h6.4c.3 0 .5-.2.6-.6l.5-2.9-6.7 1.9zm28.2-5.6v.2l-1.7 9.7h-2.8l1.7-9.7c0-.3-.2-.5-.5-.5h-6.4c-.3 0-.5.2-.6.5l-1.7 9.7h-2.8l2.3-13h2.8l-.1.8c.1-.5.6-.8 1.5-.8h5.5c.8 0 1.5.3 2 .8s.8 1.2.8 2v.3zm13.7 9.9l.1-.8c-.1.6-.6.8-1.5.8h-5.5c-.8 0-1.5-.3-2-.8s-.8-1.2-.8-2c0-.2 0-.4.1-.6l1.1-6.4c.2-.9.6-1.7 1.4-2.3.8-.7 1.6-1 2.5-1h5.5c.3 0 .6.1.8.2.4.2.5.4.4.6l1.7-9.9h2.7l-3.9 22.1h-2.6zm1.7-9.7c0-.3-.2-.5-.5-.5h-6.4c-.3 0-.5.2-.6.5l-1.1 6.4c0 .3.2.5.5.5h6.4c.3 0 .5-.2.6-.6l1.1-6.3zm23.8-.5l-1.2 6.9c0 .3.2.5.5.5h3.6l-.5 2.8h-3.6c-.8 0-1.5-.3-2-.8s-.8-1.2-.8-2v-.7l1.2-6.9h-2.2l.5-2.8h2.2l1.1-6.3h2.8l-1.1 6.3h2.8l-.5 2.8h-2.8zm22.3.3v.2l-1.7 9.7h-2.8l1.7-9.7c0-.3-.1-.5-.5-.5h-6.4c-.3 0-.5.2-.6.5l-1.7 9.7h-2.8l3.9-22.1h2.7l-1.7 9.9c.1-.5.6-.8 1.5-.8h5.5c.8 0 1.5.3 2 .8s.8 1.2.8 2v.3zm18.3 0v.2l-.2 1.3c-.2.9-.6 1.7-1.4 2.3-.8.6-1.6 1-2.5 1h-5l.5-2.8h5c.5 0 .8-.6.8-1.7 0-.4-.1-.6-.4-.6h-6.4c-.3 0-.5.2-.6.5l-1.1 6.4c0 .3.2.5.5.5h9.7l-.5 2.8h-9.7c-.8 0-1.5-.3-2-.8s-.8-1.2-.8-2c0-.2 0-.4.1-.6l1.1-6.4c.2-.9.6-1.7 1.4-2.3.8-.7 1.6-1 2.5-1h6.4c.8 0 1.5.3 2 .8s.8 1.2.8 2v.4zm-342.7 28.3h-7.7l-3.8 21.7h-3.8l3.8-21.7h-7.7l.7-3.8h19.2l-.7 3.8zm30.4 0h-17.9c-.4 0-.7.2-.8.7l-1.1 6.4h15.3l-.7 3.8h-15.3l-1.1 6.5c0 .3.2.5.5.5h17.9l-.7 3.8h-18.5c-.9 0-1.7-.3-2.3-.9-.6-.6-.9-1.4-.9-2.3 0-.2 0-.4.1-.7l3.1-17.9c.2-1.1.7-2 1.6-2.7.8-.8 1.8-1.1 2.9-1.1h18.5l-.6 3.9zm38.4-.6c0 .2 0 .4-.1.6l-3.8 21.7h-3.8l3.7-21.2c0-.3-.2-.5-.5-.5h-7.3c-.4 0-.7.2-.8.7l-3.7 21.1h-3.8l3.7-21.2c0-.3-.2-.5-.5-.5h-7.3c-.4 0-.7.2-.8.7l-3.7 21.1h-3.8l3.8-21.7c.2-1.1.7-2 1.6-2.7.8-.8 1.8-1.1 2.9-1.1h7.7c.6 0 1.1.3 1.7.8.6.6.8 1.1.7 1.7.1-.6.5-1.1 1.3-1.7.7-.6 1.4-.8 2.1-.8h7.7c.9 0 1.7.3 2.3.9.4.4.7 1.2.7 2.1zm32 0c0 .2 0 .4-.1.6l-1.5 9c-.2 1-.7 1.9-1.6 2.7-.9.8-1.9 1.2-2.9 1.2h-14.7l-1.6 8.9h-3.8l4.5-25.6h18.5c.9 0 1.7.3 2.3.9.5.6.9 1.4.9 2.3zm-4.6.6h-14.1l-1.6 9h14.1c.4 0 .7-.2.7-.7l1.3-7.8c.1-.3 0-.5-.4-.5zm21.4 21.8h-12.8l4.5-25.6h3.8l-3.8 21.7h8.9l-.6 3.9zm34.2-21.8h-17.9c-.4 0-.7.2-.8.7l-1.1 6.4h15.4l-.7 3.8h-15.3l-1.1 6.5c0 .3.2.5.5.5h17.9l-.7 3.8h-18.5c-.9 0-1.7-.3-2.3-.9-.6-.6-.9-1.4-.9-2.3 0-.2 0-.4.1-.7l3.1-17.9c.2-1.1.7-2 1.6-2.7.8-.8 1.8-1.1 2.9-1.1h18.5l-.7 3.9zm46.4-.6c0 .2 0 .4-.1.6l-3.1 17.9c-.2 1-.7 2-1.6 2.7-.9.7-1.9 1.1-2.9 1.1h-14.7c-.9 0-1.7-.3-2.3-.9-.6-.6-.9-1.4-.9-2.3 0-.2 0-.4.1-.7l3.1-17.9c.2-1.1.7-2 1.6-2.7.8-.8 1.8-1.1 2.9-1.1h14.7c.9 0 1.7.3 2.3.9.6.7.9 1.5.9 2.4zm-4.5.6h-13.4c-.4 0-.7.2-.8.7l-2.9 16.7c0 .3.2.5.5.5h13.4c.4 0 .7-.2.8-.7l2.9-16.7c0-.3-.2-.5-.5-.5zm36.4 0h-17.9c-.4 0-.7.2-.8.7l-1.1 6.4h15.3l-.7 3.8h-15.3l-1.9 10.9h-3.8l3.8-21.7c.2-1.1.7-2 1.6-2.7.8-.8 1.8-1.1 2.9-1.1h18.5l-.6 3.7zm44.8-.6c0 .2 0 .4-.1.6l-3.1 17.9c-.2 1-.7 2-1.6 2.7-.9.7-1.9 1.1-2.9 1.1h-18.5l4.5-25.6h18.5c.9 0 1.7.3 2.3.9.6.7.9 1.5.9 2.4zm-4.5.6h-14.1l-3.1 17.9h14c.4 0 .7-.2.8-.7l2.9-16.7c0-.3-.2-.5-.5-.5zm36.5-.6c0 .2 0 .4-.1.6l-3.1 17.9c-.2 1-.7 2-1.6 2.7-.9.7-1.9 1.1-2.9 1.1h-14.8c-.9 0-1.7-.3-2.3-.9-.6-.6-.9-1.4-.9-2.3 0-.2 0-.4.1-.7l3.1-17.9c.2-1.1.7-2 1.6-2.7.8-.8 1.8-1.1 2.9-1.1h14.7c.9 0 1.7.3 2.3.9.6.7 1 1.5 1 2.4zm-4.6.6h-13.4c-.4 0-.7.2-.8.7l-2.9 16.7c0 .3.2.5.5.5h13.4c.4 0 .7-.2.8-.7l2.9-16.7c0-.3-.1-.5-.5-.5zm42.9-.6c0 .2 0 .4-.1.6l-3.8 21.7h-3.9l3.7-21.2c0-.3-.2-.5-.5-.5h-7.3c-.4 0-.7.2-.8.7l-3.7 21.1h-3.8l3.7-21.2c0-.3-.2-.5-.5-.5h-7.3c-.4 0-.7.2-.8.7l-3.7 21.1h-3.8l3.8-21.7c.2-1.1.7-2 1.6-2.7.8-.8 1.8-1.1 2.9-1.1h7.7c.6 0 1.1.3 1.7.8.6.6.8 1.1.7 1.7.1-.6.5-1.1 1.3-1.7.7-.6 1.4-.8 2.1-.8h7.7c.9 0 1.7.3 2.3.9.5.4.8 1.2.8 2.1z" fill="#F2F2F2"/></svg>