<svg xmlns="http://www.w3.org/2000/svg" viewBox="0 0 270 100" enable-background="new 0 0 270 100"><path d="M56.387 38.135c-7.802-6.905-14.951-13.395-22.329-19.615-1.342-1.132-3.607-1.568-5.466-1.619-6.99-.19-13.999.118-20.975-.251-1.593-.085-3.082-2.131-4.62-3.274 1.567-1.076 3.129-3.08 4.702-3.089 32.138-.183 64.276-.137 97.058-.137-2.815 4.129-5.32 7.591-10.641 6.674-6.346-1.095-11.029 1.504-15.431 5.951-5.248 5.302-11.106 9.998-17.214 15.41 7.938 6.983 15.577 13.827 23.402 20.449 1.103.933 3.803.262 4.56 1.253 1.266 1.655 2.496 4.256 2.096 6.103-1.436 6.626-3.418 13.149-5.531 19.603-.484 1.478-2.307 2.518-3.514 3.76-.372-1.734-1.345-3.595-1.009-5.178 1.233-5.825 2.9-11.557 4.574-17.977h-5.725c-23.316 0-46.633 0-69.95-.001-1.166 0-2.508.356-3.457-.099-1.445-.696-2.618-1.958-3.907-2.979 1.303-1.208 2.549-3.38 3.918-3.462 6.473-.384 12.993-.452 19.47-.121 4.346.222 7.55-1.18 10.654-4.11 6.146-5.805 12.588-11.293 19.335-17.291zm23.75 20.999c-7.657-6.747-14.338-12.635-21.225-18.705l-21.105 18.705h42.33zm-.051-41.956h-42.293c7.576 6.696 14.307 12.646 21.171 18.714 7.053-6.249 13.619-12.067 21.122-18.714zm134.253 20.98c7.802 6.912 14.962 13.39 22.314 19.642 1.233 1.049 3.289 1.525 4.983 1.57 6.661.177 13.329.042 19.995.094 2.538.02 5.7.086 5.102 3.612-.218 1.286-3.255 2.972-5.018 2.986-23.829.197-47.659.133-71.489.133h-6.161c1.489 5.922 2.886 11.447 4.266 16.978.281 1.127.783 2.303.659 3.396-.11.969-.785 2.405-1.513 2.624-.76.228-2.532-.553-2.746-1.239-2.359-7.578-4.84-15.153-6.461-22.903-.401-1.919.354-5.847 4.668-5.72 1.443.043 3.188-.859 4.346-1.853 7.201-6.182 14.276-12.512 21.997-19.327-7.982-7.018-15.606-14.124-23.75-20.572-1.813-1.435-5.453-.694-8.254-.724-7.046-.077-7.047-.024-12-6.709h95.64c.833 0 1.874-.303 2.457.082 1.328.878 2.431 2.095 3.626 3.174-1.195 1.119-2.332 3.122-3.597 3.205-5.642.373-11.348.556-16.977.121-5.766-.445-10.1 1.31-14.185 5.419-5.487 5.522-11.593 10.428-17.902 16.011zm-23.744 20.993h42.355c-7.555-6.683-14.3-12.65-21.185-18.739-6.993 6.191-13.573 12.015-21.17 18.739zm21.224-23.214l20.799-18.58h-41.773l20.974 18.58zm-32.685 10.774c-.029 24.692-19.815 44.478-44.325 44.323-24.562-.154-44.009-19.975-43.928-44.77.08-24.475 19.647-43.989 44.127-44.008 24.683-.018 44.156 19.601 44.126 44.455zm-43.944 39.813c22.274-.057 39.794-17.725 39.739-40.077-.054-22.202-17.961-40.009-40.054-39.831-22.204.179-39.93 18.042-39.846 40.152.085 22.115 17.961 39.812 40.161 39.756zm-56.257 3.723h-6.865c0-3.013-.331-5.975.156-8.798.208-1.202 2.399-3.136 3.206-2.921 1.369.365 3.056 2.019 3.351 3.399.537 2.513.152 5.221.152 8.32zm112.077-.15c0-2.977-.393-5.691.156-8.201.301-1.375 2.191-2.402 3.365-3.587 1.129 1.214 2.945 2.282 3.238 3.672.529 2.513.149 5.218.149 8.116h-6.908zm-111.719 4.6c-1.292 1.097-2.608 3.077-3.867 3.041-1.243-.036-2.427-2.111-3.636-3.292l.78-1.072h5.705l1.018 1.323zm118.994-.002c-1.293 1.099-2.614 3.088-3.869 3.047-1.252-.042-2.438-2.117-3.651-3.301l.797-1.067h5.705l1.018 1.321zm-37.419-35.497l8.923.469c-.445 4.612-2.247 6.7-7.19 6.631-18.283-.255-36.577-.293-54.859.024-4.947.086-6.83-1.945-7.628-6.646l9.284-.446c-4.603-14.887-1.709-27.271 11.657-35.798 9.024-5.758 21.583-4.934 30.09 1.338 10.541 7.772 13.474 17.818 9.723 34.428zm-3.867-42.589h-43.142c7.278-9.23 32.221-9.468 43.142 0z" fill-rule="evenodd" clip-rule="evenodd"/><path fill-rule="evenodd" clip-rule="evenodd" fill="#F2F2F2" d="M137.67 81.418c0 5.5-1.125 10-2.5 10s-2.5-4.5-2.5-10v-69c0-5.5 1.125-10 2.5-10s2.5 4.5 2.5 10v69z" opacity=".5"/></svg>