<svg xmlns="http://www.w3.org/2000/svg" viewBox="0 0 60 80" enable-background="new 0 0 60 80"><path fill-rule="evenodd" clip-rule="evenodd" d="M60 16.061v-.415l-4.316 4.028c1.537-1.879 2.681-3.938 3.131-6.348-1.156 3.043-3.595 5.194-5.389 7.859-.113-.843-.107-.878.387-1.385 2.023-2.082 3.292-4.531 3.645-7.432l.038-.482c.004-.134-.009-.269-.053-.415-.466 3.116-2.224 5.612-3.835 8.179l-.195-.07c.173-.499.242-1.071.533-1.489 1.655-2.376 2.63-4.998 2.991-7.858l-3.042 7.676-.233-.087c.053-.746.182-1.401.574-2.134.717-1.337 1.119-2.851 1.592-4.31.203-.626.255-1.301.375-1.94-.766 2.013-1.537 4.04-2.307 6.067l-.169-.032.184-1.204c-.596-.35-.554-1.004-.728-1.553-.145-.457-.28-.917-.531-1.349l.987 3.964-.143.026c-.633-1.663-1.292-3.315-1.876-4.993l-.258.113c-.464 1.223-.801 2.562-1.103 4.011.04.251-.004.544-.185.907l.185-.907c-.174-1.083-1.926-1.378-1.146-2.938-.71 0-.894.263-.894.641l.011.173c.06.536.345 1.232.116 1.772l.159 2.435-.993-.701c.064.538.145.928.146 1.321.002.485.03 1.001-.114 1.452-.334 1.04-.766 2.049-1.181 3.132l-.614-.453c.651.719.357 1.422-.036 2.124-.586-.314-.586-.314-.469-.91.071-.36.133-.723.227-1.077.017-.061.178-.084.274-.124-.043-.267-.158-.545-.114-.797.407-2.36.841-4.716 1.269-7.073l.103-.135.556.756.082-.266c-.404-.547-.697-1.149-.901-1.795-.041 1.242-.406 2.443-.711 3.658-.49 1.951-.955 3.909-1.43 5.864l-.041-.01c.558-4.491 1.115-8.983 1.674-13.474l.007-.002c-.007-.436-.009-.875-.009-1.315 0-.3-.003-.503-.033-.643l-.033.006c.029.491.041.983-.047 1.451-.546 2.896-1.186 5.775-1.763 8.666-.355 1.78-.659 3.568-.985 5.354.075-1.353.257-2.692.409-4.034.152-1.328.285-2.659.404-3.991.118-1.355.248-2.712.3-4.07.051-1.331.011-2.666.011-4l-.139-.017-2.133 18.039c-.195-.933-1.019-1.946-.28-3.164.146-.243.165-.574.205-.87.51-3.999 1.045-7.996 1.499-12 .176-1.547.165-3.115.238-4.673l-.216-.02c-1.008 5.731-2.071 11.454-2.636 17.274-.143-.561-.188-1.125-.171-1.687.013-.364.145-.724.178-1.09.407-4.545.817-9.09 1.198-13.637.068-.806.009-1.624.009-2.436l-.216-.017-1.764 16.721c-.404-.916-.642-1.767-.533-2.892.375-3.895.499-7.815.694-11.727.049-.976.007-1.958.007-2.936l-.278-.006c-.529 4.804-1.138 9.601-1.194 14.482-.338-.68-.81-1.389-.808-2.097.012-3.754.145-7.508.226-11.261.006-.288-.068-.578-.105-.867l-.189.004c-.221 3.724-.442 7.45-.672 11.339-.14-.419-.32-.714-.328-1.015-.053-2.143-.048-4.286-.11-6.428-.037-1.272-.162-2.541-.248-3.81l-.157.004v9.51c-.321-.314-.617-.677-.664-1.067-.143-1.166-.148-2.346-.28-3.512-.198-1.753-.457-3.499-.691-5.247l-.05.011v4.754c-.299-1.762-.591-3.454-.882-5.147l-.134.023.193 4.138-.05.008-.616-3.548-.199.023c.172 2.078.343 4.156.513 6.234-.48-2.22-.909-4.464-1.921-6.523l-.167.048 1.414 5.751-8.49-2.968c.408.447.809.82 1.269 1.096.504.304 1.062.516 1.596.769l-.024.08-.947-.135 1.179.863-.052.075-3.284-1.243-.059.145 4.758 2.551-.066.133-3.815-1.839-.067.134 6.413 3.793-.061.112-6.413-3.223-.062.12 1.83 1.183-.068.127-1.298-.737c.47.516 1.006.912 1.544 1.306 2.92 2.137 5.812 4.314 8.774 6.39 1.097.769 2.362 1.297 3.548 1.941.09.049.192.128.229.219.259.631.503 1.269.691 1.747-4.006-2.883-8.099-5.828-12.192-8.776l-.171.22c.244.219.479.45.734.653 1.82 1.453 3.619 2.934 5.475 4.34 1.929 1.46 3.896 2.87 5.882 4.252.706.492.931.71 1 1.629-4.52-3.774-10.924-8.53-11.864-8.732 2.649 2.212 5.177 4.363 7.752 6.458 1.268 1.03 2.592 2 3.951 2.908.479.32.802.606.807.978-4.613-2.95-9.308-5.953-14.003-8.956l-.156.235c3.17 2.263 6.321 4.553 9.518 6.777 1.378.959 2.82 1.837 4.293 2.642.548.299.858.599.877 1.015-3.608-2.195-7.301-4.444-10.996-6.693l-.112.175.115.144 10.161 6.692c.405.267.796.558 1.193.838l-.121.177c-1.117-.683-2.223-1.384-3.354-2.04-.349-.202-.771-.283-1.164-.407-.524-.164-1.064-.283-1.575-.479-1.139-.436-2.262-.92-3.399-1.363-.52-.203-1.059-.359-1.123-1.048l-.055.512c-.673-.058-1.023-.374-1.106-1.026-.057-.456-.206-.9-.313-1.35l-.124.024.157 1.807c-.715-.083-1.056-.386-1.179-1.041-.159-.851-.437-1.68-.664-2.518l.278 3c.549 2.061.78 4.186 1.238 6.262l-.203.055-3.213-9.974-.208.058c.968 3.847 1.934 7.694 2.901 11.541l-.256.091c-.916-4.619-2.818-8.87-4.524-13.196l-.208.068 2.907 10.245c-1.156-3.735-2.81-7.267-4.346-10.848l-.164.06 2.975 8.851-.052.028-4.094-9.038-.226.101 2.899 7.13-.103.049-3.443-6.921-.204.097 2.491 5.424-4.716-5.556-.208.166 2.012 2.754-3.276-2.371-.112.14c4.81 3.452 8.715 7.755 12.07 12.716l-.9-.059c1.169.445 1.198.429 1.693 1.275.839 1.433 1.633 2.894 2.457 4.335.517.906 1.056 1.799 1.66 2.824l-.887-.143c.678.298 1.305.603 1.368 1.52l-3.584.289c.529.448.873.829 1.294 1.077 1.15.678 2.334 1.295 3.499 1.948.193.108.449.229.522.406.569 1.378 1.099 2.771 1.712 4.338l-.649-.155c-.751.447-1.511.467-2.364.638v-3.791l-.2-.011c-.142.832-.332 1.659-.41 2.497-.079.84-.256 1.516-1.277 1.55-.074.003-.145.08-.285.161.18.116.298.241.437.274.74.175.773.661.702 1.305-.16 1.442-.258 2.893-.357 4.342-.038.555-.006 1.115-.006 1.674l-.134-.005c-1.135-4.94-2.27-9.88-3.406-14.82l-.223.05c.601 4.797.991 9.624 2.08 14.37-1.519-5.396-3.625-10.57-5.581-15.798l-.195.064 4.205 13.814c-.259-.445-.491-.726-.597-1.047-.221-.674-.297-1.403-.571-2.051-1.26-2.991-2.55-5.969-3.864-8.937-.656-1.481-1.386-2.929-2.084-4.391l-.131.053 2.573 7.142-.06.021-4.452-8.925-.138.06c1.033 2.747 2.067 5.493 3.099 8.24l-.048.017c-1.675-3.154-3.352-6.306-5.028-9.459l-.148.072 4.303 9.745-.064.023c-2.008-3.291-4.016-6.581-6.025-9.872l-.198.115 5.621 10.625-.156.096c-.765-1.351-1.489-2.728-2.304-4.048-.835-1.35-1.748-2.653-2.652-3.96-.886-1.279-1.804-2.537-2.708-3.804.182.669.481 1.26.799 1.84.994 1.814 1.995 3.624 2.994 5.434l1.245 1.858c-.77-.377-.885-1.194-1.288-1.817-.616-.856-1.225-1.717-1.848-2.568-1.137-1.551-2.281-3.096-3.422-4.645l-.193.129c1.598 2.514 3.197 5.03 4.794 7.544l-.065.05c-2.05-2.618-4.1-5.235-6.149-7.853l-.197.148 4.623 6.388-.094.078-4.905-5.835-.187.155 3.61 4.551-.133.152c-1.75-1.776-3.764-3.172-5.984-4.281l2.392 2.022c-.699-.183-1.34-.476-1.994-.733-.634-.249-1.282-.462-1.924-.69 10.217 4.188 17.824 11.497 24.483 20.138l-2.079.251c-.169.111-.47.347-.805.517-.616.313-1.257.576-1.878.879-.552.27-1.093.565-1.777.922h1.496c-.572.327-1.024.552-1.441.832-.711.478-1.508.829-2.124 1.454-.117.119-.365.11-.57.165l-1.453 1.87c-.116-.749-.231-1.448-.328-2.15-.014-.099.051-.211.084-.315.141-.451.334-.893.416-1.353.249-1.402.405-2.821.689-4.215.529-2.605.134-5.058-1.086-7.605-.77 1.558-1.481 2.969-2.165 4.393-.517 1.077-.94 2.173-.084 3.292l-.026.052-.968-.722-2.084 6.133c-1.704-1.604-3.825-2.763-5.081-4.851l-.252.12 1.259 5.746c-1.174-2.225-2.978-3.835-5.317-4.873l-.162 1.156-.248.123c-.309-2.417-2.136-2.883-4.077-3.487.148.383.239.592.311.808.505 1.528.987 3.064 1.515 4.585.345.992.725 1.974 1.148 2.935.233.527.587 1.001.979 1.655-.623-.151-1.066-.252-1.506-.367-.46-.121-.933-.374-1.257.249-.038.073-.261.12-.359.081l-.426-.161v18.363h58.94v-50.791c-.458-.031-.922-.034-1.37-.111-.116-.02-.253-.271-.267-.425-.011-.133.109-.362.227-.407.458-.177.938-.298 1.41-.441v-.831l-1.68.57-.595-1.301 2.275-1.206v-.554l-3.296 1.271-.098-.151 3.394-2.503v-.831l-3.728 2.309-.732.446 4.46-4v-1.384c-1.436 1.288-2.872 2.575-4.31 3.86-.237.211-.486.406-.903.565.017-.174-.034-.419.062-.511 1.663-1.586 3.343-3.155 5.023-4.725l.128-.021v-.692l-5.603 4.919-.161-.022c.03-.191-.006-.443.103-.567 1.877-2.146 3.771-4.276 5.661-6.408zm-22.854-3.714c.23.096.343.471.51.718l-.129.123-2.66-1.585c.793.25 1.558.444 2.279.744zm-3.099-4.608l-2.026-.701c.692.187 1.528-.053 2.026.701zm-3.121-.555c.514.167 1.027.34 1.544.499.308.094.623.242.932.235 1.132-.03 1.62.74 2.095 1.613l-4.591-2.278.02-.069zm.075 1.324l.035-.074c.739.351 1.463.731 2.218 1.044.89.368 1.817.649 2.702 1.029.256.11.446.41.626.653.175.237.298.511.437.756l-6.018-3.408zm2.594 3.581l.041-.085c.27.146.536.303.813.436 1.18.572 2.37 1.121 3.537 1.717.213.109.361.386.485.615.201.375.359.775.535 1.167-1.83-1.303-3.621-2.577-5.411-3.85zm-6.463 35.377l.768 1.729c-.533-.441-1.124-.855-.768-1.729zm-15.56 15.143l-.316-1.62c.147.501 1.122.85.316 1.62zm-.142 2.313l1.029-1.611c.487.569.474.593-.792 1.73l-.237-.119zm.651 1.74c-.117-.076-.182-.495-.097-.575.321-.307.713-.54 1.219-.901l.317 2.208c-.55-.27-1.021-.461-1.439-.732zm5.865-2.139l-.183-.092 1.293-2.518.142.071-1.252 2.539zm30.851-39.806l-.182-.03.237-1.225c.46.508.46.508-.055 1.255zm.522 38.993v1.333l-.818-.981.818-.352zm-.976-44.083c.139.799.916 1.388.291 2.249-.82-.643-.813-1.358-.291-2.249zm-.666 1.705c.832.678.852.934.203 2.237-1.117-.706-.164-1.469-.203-2.237zm.155 41.8l-1.325-1.956c1.074.251 1.829 1.37 1.325 1.956zm-.775-39.596c.65.528.663.646.167 1.371-.786-.37-.285-.884-.167-1.371zm-.572 1.711h.282v1.24c-.849-.424-.348-.85-.282-1.24zm-1.423-1.637c.811.534.154 1.008.077 1.609-.58-.601-.107-1.076-.077-1.609zm-4.296 14.488l-1.085-.314.42-1.558 1.329.432-.664 1.44zm.244 5.095c-.46.734-.702 1.534-1.261 2.123l-.252-.135.817-2.214.696.226zm-3.499-11.113l2.638.666-.222.646-2.416-.526v-.786zm-.034-.827v-1.252l3.526.669-.06.271c-.516 1.146-.214 1.011-1.466.75-.65-.135-1.296-.283-2-.438zm3.927 4.674l-1.149-.337.201-.869 1.002 1.066-.054.14zm-.666-2.347l.154-.651 2.103.381c-.092.67-.374.877-.983.626-.377-.156-.792-.225-1.274-.356zm1.151 4.312c.099-.319.216-.633.379-1.107l1.386 2.007-.103.16-1.754-.549c.035-.203.047-.362.092-.511zm2.353 6.767c.165-.173.599-.086.939 0-.64.536-.914 1.46-1.934 1.445.323-.49.597-1.028.995-1.445zm.146-11.258l.334 1.514-1.719-.722c.191-.914-.087-.885 1.385-.792zm-.191-.493l-3.079-.876.259-1.246c1.096.032 2.63 1.195 2.82 2.122zm-6.727-5.358c1.651-.088 2.719.938 3.883 2.06l-3.883-.726v-1.334zm.039 6.273l1.988.669-.287.761c-2.145-.551-1.779-.364-1.701-1.43zm-6.71-7.696l-1.22-4.884c.669.125.889.508.942 1.11.112 1.249.291 2.493.443 3.739l-.165.035zm1.196.075l-.938-4.13c.666.12.847.479.861 1.074.017.766.166 1.529.253 2.293l.057.726-.233.037zm.454-2.612c1.994.817 1.66.338 1.648 2.638-1.035.206-1.065.189-1.272-.797l-.376-1.841zm.68 3.147c1.145-.019 1.24.136 1.046 1.609-.803.096-.825.258-1.046-1.609zm.502 2.504c.708.025.708.025.65 1.296-.583-.039-.694-.258-.65-1.296zm.682 2.979l-.194.047-.255-1.224c.582.21.625.347.449 1.177zm.001-7.636c.847.153 2.718 1.448 2.862 2.055l-1.287-.137-1.339-.131-.236-1.787zm.288 2.316c.791.147 1.466.252 2.128.412.129.031.291.27.295.417.007.335-.072.673-.125 1.075l-2.084-.288-.214-1.616zm1.407 9.862c-.447-.171-.566-.663-.472-2.017.782.169.869.58.472 2.017zm.229-2.376c-.905-.157-.905-.157-.858-1.201 1.05.13 1.066.152.858 1.201zm.231-1.815c-1.234.024-1.312-.046-1.265-1.171l1.318.397-.053.774zm-1.488-3.116l1.781.384-.125 1.138c-1.816-.114-1.659-.106-1.656-1.522zm2.097 13.493l-.126.029c-.11-.268-.261-.53-.313-.81-.024-.126.128-.306.239-.427.05-.054.268-.051.28-.022.044.114.057.25.045.373-.03.288-.082.572-.125.857zm-2.627 4.675c.488.283.864.457 1.183.706.135.105.234.38.206.554-.264 1.635-.569 3.263-.836 4.897-.064.391-.169.609-.553.457v-6.614zm-.264 13.891c-.257-.656-.972-.664-1.665-.602-.936.084-1.864.246-2.839.381-.317-.613-.656-1.257-.981-1.908-.046-.091-.048-.222-.025-.325.205-.914.42-1.827.651-2.822 1.397.318 2.928.232 4.213 1.032l-.043.261c-.384.112-.779.192-1.148.342-.632.255-.68.472-.31 1.025.63.938 1.61 1.341 2.609 1.713.4.148.807.276 1.356.463l-1.818.44zm3.778-9.66c-.14.3-.664.541-.214 1.024.053.056-.307.585-.555.803-.163.145-.469.129-.79.202l.271-4.874 1.943 1.793c-.208.325-.477.668-.655 1.052zm.054-6.382c-.375-.509-.578-.905-.267-1.474.295-.539.474-1.14.759-1.852.161.205.396.382.368.486-.249.922-.548 1.83-.86 2.84zm.48-8.126c-1.282-.047-1.156-.024-.992-1.973l1.495.487-.503 1.486zm.957 14.584l.499 1.648-.894-.182.395-1.466zm.878 10.809l-.659-.317c.148-.73.543-.438.963-.288l-.304.605zm.124-9.458c-.317-.868-.257-.982.839-1.539l-.839 1.539zm.944-7.758l1.03-1.809.745.267c-.586.574-.904 1.317-1.57 1.712l-.205-.17zm.252 8.58c.601-.386.973-.966 1.765-1.285-.61 1.205-1.046 1.523-1.765 1.285zm1.683 10.786l.732-1.292 1.686 1.139-1.368 1.065-1.05-.912zm2.093 1.869l1.25-1.108 2.836 2.569c-1.785.576-2.663.237-4.086-1.461zm4.589-1.4l-.244-.041c-.146-.971-.173-1.906.805-2.607l-.561 2.648zm.665-35.173l-.208.002v-1.634c.884.634.217 1.133.208 1.632zm.892-19.277c.619 1.835 1.248 3.565 1.776 5.325.156.52.024 1.125-.069 1.706-.525-2.333-2.149-4.379-1.707-7.031zm.086 3.677l1.494 4.641-.118.042-1.633-4.597.257-.086zm1.303 5.878c-.7-.553-.978-1.264-.741-1.982l.741 1.982zm-.933-1.999l-.231.05-.321-1.442.19-.041c.146.472.531.893.362 1.433zm-.601 11.111l.475-1.743.237.026-.103.641-.077.216c.253.479-.044.637-.532.86zm5.581 7.214c-.773-.054-.877-.137-1.295-1.005.658-.203.658-.203 1.295 1.005zm-2.189-3.238c.293.064.527.391.786.607l-.114.164-1.325-.146-.092-.21c.251-.152.537-.461.745-.415zm-.407-1.207c-.556.946-1.46.399-2.089.898l-.233-.898h2.322z"/></svg>